<svg width="102" height="98" viewBox="0 0 102 98" fill="none" xmlns="http://www.w3.org/2000/svg">
<path d="M25.5262 26.8686C25.5262 24.7852 24.3273 23.4672 22.4226 23.4672C20.5179 23.4672 19.3201 24.7852 19.3201 26.8686C19.3201 28.952 20.5179 30.2699 22.4226 30.2699C24.3273 30.2699 25.5262 28.952 25.5262 26.8686ZM27.7083 16.2392V32.1826H25.568V31.0355C24.7126 31.907 23.5356 32.396 22.1023 32.396C19.0845 32.396 17.1797 30.2699 17.1797 26.8686C17.1797 23.4672 19.2121 21.341 22.1023 21.341C23.5356 21.341 24.7334 21.83 25.568 22.6809V16.2392H27.7083Z" fill="#E3AA9A"/>
<path d="M33.4164 25.6995H39.5796C39.2163 24.1681 38.1033 23.2539 36.498 23.2539C34.8928 23.2539 33.7808 24.1681 33.4164 25.6995ZM36.498 30.2699C37.7179 30.2699 38.7242 29.8444 39.1943 28.9947H41.5271C40.8425 31.1416 39.0237 32.396 36.498 32.396C33.2237 32.396 31.1484 30.2699 31.1484 26.8686C31.1484 23.4672 33.2237 21.341 36.498 21.341C39.7723 21.341 41.8488 23.4246 41.8488 26.8686C41.8488 27.0806 41.8488 27.294 41.8268 27.5062H33.3317C33.5451 29.3128 34.7222 30.2699 36.498 30.2699Z" fill="#E3AA9A"/>
<path d="M55.3476 26.465V32.1826H53.2072V26.465C53.2072 24.3597 52.266 23.4672 50.511 23.4672C48.7339 23.4672 47.4293 24.7852 47.4293 26.8686V32.1826H45.2891V21.5532H47.4293V22.7017C48.2846 21.83 49.4617 21.3412 50.8533 21.3412C53.6134 21.3412 55.3476 23.0417 55.3476 26.465Z" fill="#E3AA9A"/>
<path d="M61.8899 23.6795V27.783C61.8899 29.5263 62.7036 30.2699 64.2868 30.2699C64.5654 30.2699 64.8428 30.2272 65.1006 30.1638V32.2472C64.736 32.3534 64.3506 32.396 63.9223 32.396C61.5047 32.396 59.7496 30.9928 59.7496 28.1438V23.6795H57.6094V21.5532H59.7496V18.3653H61.8899V21.5532H65.1006V23.6795H61.8899Z" fill="#E3AA9A"/>
<path d="M75.6024 26.8686C75.6024 24.7852 74.4047 23.4672 72.5 23.4672C70.5953 23.4672 69.3963 24.7852 69.3963 26.8686C69.3963 28.952 70.5953 30.2699 72.5 30.2699C74.4047 30.2699 75.6024 28.952 75.6024 26.8686ZM77.7856 21.5532V32.1826H75.6454V31.0355C74.7887 31.907 73.6118 32.396 72.1784 32.396C69.1607 32.396 67.2559 30.2699 67.2559 26.8686C67.2559 23.4672 69.2895 21.341 72.1784 21.341C73.6118 21.341 74.8109 21.83 75.6454 22.6809V21.5532H77.7856Z" fill="#E3AA9A"/>
<path d="M84.0075 32.1824H81.8672V16.2391H84.0075V32.1824Z" fill="#E3AA9A"/>
<path d="M25.5262 49.3389C25.5262 47.2555 24.3273 45.9376 22.4226 45.9376C20.5179 45.9376 19.3201 47.2555 19.3201 49.3389C19.3201 51.4223 20.5179 52.7402 22.4226 52.7402C24.3273 52.7402 25.5262 51.4223 25.5262 49.3389ZM27.7083 38.7095V54.6531H25.568V53.5059C24.7126 54.3776 23.5356 54.8662 22.1023 54.8662C19.0845 54.8662 17.1797 52.7402 17.1797 49.3389C17.1797 45.9376 19.2121 43.8115 22.1023 43.8115C23.5356 43.8115 24.7334 44.3002 25.568 45.1513V38.7095H27.7083Z" fill="#E3AA9A"/>
<path d="M32.732 48.1698H38.8953C38.5308 46.6387 37.4188 45.7242 35.8136 45.7242C34.2084 45.7242 33.0954 46.6387 32.732 48.1698ZM35.8136 52.7402C37.0335 52.7402 38.0387 52.3147 38.5099 51.4651H40.8428C40.158 53.6119 38.338 54.8662 35.8136 54.8662C32.5394 54.8662 30.4629 52.7402 30.4629 49.3389C30.4629 45.9376 32.5394 43.8115 35.8136 43.8115C39.0879 43.8115 41.1633 45.8949 41.1633 49.3389C41.1633 49.551 41.1633 49.7644 41.1424 49.9765H32.6461C32.8597 51.7831 34.0365 52.7402 35.8136 52.7402Z" fill="#E3AA9A"/>
<path d="M43.2773 51.6137H45.4177C45.4177 52.4209 46.4228 52.9524 47.9851 52.9524C49.5474 52.9524 50.5537 52.4428 50.5537 51.6137C50.5537 49.4023 43.4909 51.1029 43.4909 47.0641C43.4909 44.9599 45.225 43.8115 47.9851 43.8115C50.7464 43.8115 52.4793 44.9599 52.4793 47.0641H50.3389C50.3389 46.2557 49.4185 45.7242 47.9851 45.7242C46.5516 45.7242 45.6313 46.2557 45.6313 47.0641C45.6313 49.1476 52.6929 47.2762 52.6929 51.6137C52.6929 53.7179 50.8739 54.8662 47.9851 54.8662C45.0963 54.8662 43.2773 53.7179 43.2773 51.6137Z" fill="#E3AA9A"/>
<path d="M57.59 54.6531H55.4497V44.0237H57.59V54.6531ZM56.52 38.7096C57.3115 38.7096 57.8036 39.1985 57.8036 39.9848C57.8036 40.7724 57.3115 41.2612 56.52 41.2612C55.7285 41.2612 55.2363 40.7724 55.2363 39.9848C55.2363 39.1985 55.7285 38.7096 56.52 38.7096Z" fill="#E3AA9A"/>
<path d="M68.6923 49.339C68.6923 47.2555 67.4945 45.9377 65.5897 45.9377C63.6851 45.9377 62.486 47.2555 62.486 49.339C62.486 51.4224 63.6851 52.7402 65.5897 52.7402C67.4945 52.7402 68.6923 51.4224 68.6923 49.339ZM70.8755 44.0237V54.6531C70.8755 58.0543 68.8642 60.1804 65.6966 60.1804C62.8505 60.1804 60.9459 58.5005 60.5605 55.7161H62.7217C63.0849 57.1826 64.1344 58.0543 65.6744 58.0543C67.5582 58.0543 68.7351 56.7365 68.7351 54.6531V53.5059C67.8786 54.3776 66.7017 54.8663 65.2683 54.8663C62.2505 54.8663 60.3457 52.7402 60.3457 49.339C60.3457 45.9377 62.3793 43.8115 65.2683 43.8115C66.7017 43.8115 67.9007 44.3003 68.7351 45.1513V44.0237H70.8755Z" fill="#E3AA9A"/>
<path d="M84.3289 48.9354V54.6531H82.1884V48.9354C82.1884 46.8301 81.2473 45.9376 79.4922 45.9376C77.7164 45.9376 76.4107 47.2555 76.4107 49.3389V54.6531H74.2715V44.0237H76.4107V45.1721C77.2673 44.3004 78.4442 43.8116 79.8346 43.8116C82.596 43.8116 84.3289 45.5122 84.3289 48.9354Z" fill="#E3AA9A"/>
<path d="M27.8806 71.406V77.1235H25.7403V71.406C25.7403 69.3005 24.7992 68.4081 23.0441 68.4081C21.2671 68.4081 19.9626 69.726 19.9626 71.8094V77.1235H17.8223V61.18H19.9626V67.6425C20.8178 66.7709 21.9948 66.2821 23.3865 66.2821C26.1467 66.2821 27.8806 67.9827 27.8806 71.406Z" fill="#E3AA9A"/>
<path d="M33.2966 70.6403H39.4598C39.0952 69.1091 37.9834 68.1947 36.3781 68.1947C34.7729 68.1947 33.6598 69.1091 33.2966 70.6403ZM36.3781 75.2108C37.5981 75.2108 38.6031 74.7853 39.0744 73.9355H41.4074C40.7226 76.0824 38.9026 77.3369 36.3781 77.3369C33.1038 77.3369 31.0273 75.2108 31.0273 71.8094C31.0273 68.4081 33.1038 66.2821 36.3781 66.2821C39.6524 66.2821 41.7277 68.3655 41.7277 71.8094C41.7277 72.0214 41.7277 72.2348 41.7069 72.447H33.2106C33.4243 74.2537 34.6012 75.2108 36.3781 75.2108Z" fill="#E3AA9A"/>
<path d="M52.9031 71.8094C52.9031 69.726 51.7053 68.4081 49.8006 68.4081C47.8959 68.4081 46.697 69.726 46.697 71.8094C46.697 73.8928 47.8959 75.2108 49.8006 75.2108C51.7053 75.2108 52.9031 73.8928 52.9031 71.8094ZM55.0863 66.4941V77.1235H52.946V75.9763C52.0894 76.848 50.9125 77.3369 49.4791 77.3369C46.4613 77.3369 44.5566 75.2108 44.5566 71.8094C44.5566 68.4081 46.5902 66.2821 49.4791 66.2821C50.9125 66.2821 52.1116 66.7709 52.946 67.6218V66.4941H55.0863Z" fill="#E3AA9A"/>
<path d="M61.3376 77.1235H59.1973V61.1801H61.3376V77.1235Z" fill="#E3AA9A"/>
<path d="M68.2326 68.6203V72.7238C68.2326 74.4671 69.0462 75.2108 70.6293 75.2108C70.908 75.2108 71.1865 75.168 71.4431 75.1046V77.188C71.0796 77.2943 70.6945 77.3369 70.2661 77.3369C67.8484 77.3369 66.0935 75.9337 66.0935 73.0846V68.6203H63.9531V66.4941H66.0935V63.3061H68.2326V66.4941H71.4431V68.6203H68.2326Z" fill="#E3AA9A"/>
<path d="M84.3289 71.406V77.1235H82.1884V71.406C82.1884 69.3005 81.2473 68.4081 79.4922 68.4081C77.7164 68.4081 76.4107 69.726 76.4107 71.8094V77.1235H74.2715V61.18H76.4107V67.6425C77.2673 66.7709 78.4442 66.2821 79.8346 66.2821C82.596 66.2821 84.3289 67.9827 84.3289 71.406Z" fill="#E3AA9A"/>
<path d="M10.5928 86.6132H91.4065V11.3869H10.5928V86.6132ZM93.6028 88.8147H8.39648V9.18527H93.6028V88.8147Z" fill="#E3AA9A"/>
</svg>
