<svg width="43" height="42" viewBox="0 0 43 42" fill="none" xmlns="http://www.w3.org/2000/svg">
<g id="Layer 1">
<path id="dental care" d="M10.75 15.4091C10.4529 13.7429 10.3419 12.0459 10.4191 10.3525C10.4024 9.46603 10.5832 8.58775 10.9472 7.78811C11.3111 6.98846 11.848 6.28971 12.5149 5.74787C13.1817 5.20603 13.9598 4.83618 14.7869 4.66799C15.614 4.49979 16.4671 4.53793 17.2777 4.77934C17.4372 4.82876 17.572 4.94198 17.6531 5.09473C17.7343 5.24749 17.7553 5.42762 17.7118 5.59653C17.6683 5.76544 17.5636 5.90969 17.4203 5.99835C17.2769 6.08702 17.1063 6.11305 16.9449 6.07087C11.4584 4.7989 11.1609 11.0961 11.9938 15.1703C12.0249 15.345 11.9888 15.5255 11.8934 15.6721C11.7981 15.8187 11.6513 15.9194 11.4853 15.9521C11.3194 15.9848 11.1479 15.9468 11.0087 15.8464C10.8694 15.7461 10.7737 15.5916 10.7426 15.4169L10.75 15.4091ZM40.9118 34.5082C31.0581 43.3885 14.2862 42.6429 6.30468 39.6939L1.00411 38.8094C0.854657 38.7839 0.718641 38.7035 0.620254 38.5824C0.521867 38.4613 0.46749 38.3073 0.466797 38.148L0.466797 26.0995C0.46749 26.0022 0.488172 25.9061 0.527425 25.818C0.566677 25.7299 0.623572 25.6517 0.694209 25.5889C0.764847 25.5261 0.847555 25.4801 0.936666 25.454C1.02578 25.428 1.11918 25.4226 1.21048 25.4381L6.50919 26.3245C7.63587 26.3245 8.64541 26.3402 9.56572 26.3656C7.31981 19.5655 3.92305 9.52867 9.09534 3.09642C13.0015 -1.4631 19.5217 0.255038 23.3944 3.42909C25.1365 2.08276 32.1587 -2.70376 37.2548 3.1199C42.5925 10.1412 38.7291 21.2582 35.9533 28.3225C37.4295 27.6904 38.4168 27.4145 39.114 27.9683C39.4439 28.1881 39.6987 28.5127 39.8415 28.8952C39.9842 29.2777 40.0075 29.6981 39.9079 30.0954C40.199 29.9747 40.5146 29.9344 40.8247 29.9782C41.1348 30.0221 41.4291 30.1486 41.6797 30.3459C43.5556 31.8997 41.5756 34.1031 40.9118 34.5082ZM5.81757 27.5652L1.74035 26.8842V37.5746L5.81757 38.2576V27.5652ZM35.0479 30.1737C34.6017 31.0367 34.135 31.8625 33.6442 32.6355C35.2357 32.0484 36.5222 31.4848 37.5485 31.0269C37.8419 30.9171 38.1021 30.7267 38.3021 30.4756C38.5021 30.2245 38.6348 29.9216 38.6864 29.5984C38.4725 28.2892 36.7379 29.5221 35.258 30.0817L35.0479 30.1737ZM10.9545 26.4204C13.2742 26.3959 15.5825 26.7646 17.7908 27.5124C21.1634 15.6009 26.8656 18.3542 29.1319 30.1776C29.5807 30.6325 29.8999 31.2102 30.0536 31.8456C30.2073 32.481 30.1894 33.149 30.002 33.7744C30.5747 33.6237 31.1176 33.4671 31.6307 33.3086C35.7916 27.6944 42.0385 11.3153 36.3177 4.02594C32.1085 -0.784064 26.3729 2.81855 24.4542 4.26076C25.3118 4.96875 26.1195 5.74112 26.8711 6.57183C27.4419 7.20195 26.4844 8.12559 25.9415 7.47983C25.8913 7.42308 20.812 1.71291 15.5096 1.59745C10.0621 1.40177 7.14318 7.23913 7.72139 12.5305C8.09713 17.3109 9.1883 21.9987 10.9545 26.4204ZM23.1639 21.0703C22.1004 21.0703 20.1371 23.4773 18.9361 28.1033C20.4346 28.9996 21.0165 29.5221 27.1389 29.4497C27.3327 29.4482 27.5262 29.4653 27.7171 29.5006C26.5793 23.9567 24.3315 21.0703 23.1639 21.0703ZM40.8542 31.3694C40.579 31.1248 39.3482 31.6766 38.0468 32.2598C34.8411 33.762 31.4871 34.8856 28.0462 35.6099C24.7214 36.4034 21.2767 36.4647 17.9284 35.79C17.761 35.7671 17.6091 35.6752 17.506 35.5345C17.403 35.3937 17.3573 35.2157 17.379 35.0395C17.4007 34.8633 17.488 34.7034 17.6217 34.5949C17.7554 34.4865 17.9246 34.4384 18.092 34.4612C23.9262 35.1677 28.3548 35.244 28.8549 33.0523C28.921 32.784 28.9276 32.5033 28.8743 32.2319C28.821 31.9605 28.7092 31.7056 28.5476 31.4869C28.3859 31.2681 28.1787 31.0914 27.9418 30.9702C27.705 30.8491 27.4449 30.7868 27.1816 30.7882C20.944 30.8997 19.8099 30.2011 18.4973 29.389C17.22 28.6063 15.7736 27.7061 7.08555 27.665V38.5492C9.99333 39.4787 27.1352 44.2887 40.1495 33.4319C40.5827 33.0679 41.7689 32.0934 40.8542 31.3694ZM3.77803 30.5338C3.94667 30.5338 4.1084 30.4633 4.22764 30.3378C4.34689 30.2123 4.41388 30.042 4.41388 29.8645C4.41388 29.687 4.34689 29.5168 4.22764 29.3913C4.1084 29.2658 3.94667 29.1953 3.77803 29.1953C3.60939 29.1953 3.44766 29.2658 3.32842 29.3913C3.20918 29.5168 3.14218 29.687 3.14218 29.8645C3.14218 30.042 3.20918 30.2123 3.32842 30.3378C3.44766 30.4633 3.60939 30.5338 3.77803 30.5338Z" fill="#FAFAFA"/>
</g>
</svg>
