<svg width="37" height="43" viewBox="0 0 37 43" fill="none" xmlns="http://www.w3.org/2000/svg">
<g id="Layer 1">
<path id="dental protection" d="M36.2692 5.95463C36.2084 5.89316 36.1354 5.84479 36.0548 5.81257C35.9741 5.78034 35.8876 5.76496 35.8006 5.76738C29.7106 5.90414 23.7501 4.02117 18.8727 0.4197C18.3794 0.00963655 17.6983 0.767974 17.3017 0.981432C12.5958 4.24413 6.95017 5.92427 1.20106 5.773C1.11433 5.77075 1.02802 5.78564 0.947211 5.81679C0.866398 5.84795 0.792713 5.89473 0.730488 5.95439C0.668263 6.01406 0.618755 6.0854 0.584875 6.16422C0.550994 6.24304 0.533426 6.32775 0.533203 6.41337L0.533203 24.0143C0.533203 34.1255 17.499 42.1994 18.2219 42.5383C18.3088 42.579 18.4037 42.6 18.4999 42.6C18.596 42.6 18.691 42.579 18.7778 42.5383C19.5007 42.1994 36.4665 34.1311 36.4665 24.0143V6.41337C36.4665 6.32776 36.449 6.24303 36.4151 6.16422C36.3812 6.08541 36.3316 6.01413 36.2692 5.95463ZM35.1669 24.0143C35.1669 32.0452 22.6863 39.0818 19.1497 40.9149V28.0943C19.1545 28.0072 19.1412 27.92 19.1107 27.8381C19.0802 27.7562 19.0331 27.6813 18.9723 27.618C18.9115 27.5546 18.8382 27.5042 18.757 27.4697C18.6758 27.4352 18.5883 27.4174 18.4999 27.4174C18.4114 27.4174 18.324 27.4352 18.2427 27.4697C18.1615 27.5042 18.0883 27.5546 18.0274 27.618C17.9666 27.6813 17.9195 27.7562 17.889 27.8381C17.8585 27.92 17.8453 28.0072 17.85 28.0943V40.9149C14.3134 39.0837 1.83287 32.0508 1.83287 24.0143V7.06498C7.55424 7.08204 13.1438 5.37006 17.85 2.1592V9.48792C17.8453 9.57505 17.8585 9.66223 17.889 9.74413C17.9195 9.82604 17.9666 9.90095 18.0274 9.96429C18.0883 10.0276 18.1615 10.0781 18.2427 10.1126C18.324 10.147 18.4114 10.1648 18.4999 10.1648C18.5883 10.1648 18.6758 10.147 18.757 10.1126C18.8382 10.0781 18.9115 10.0276 18.9723 9.96429C19.0331 9.90095 19.0802 9.82604 19.1107 9.74413C19.1412 9.66223 19.1545 9.57505 19.1497 9.48792V2.15732C23.8643 5.35135 29.4483 7.06166 35.1669 7.06311V24.0143ZM18.6355 12.4145C13.1807 8.35135 6.86076 11.4203 7.49067 18.2959C7.81511 23.1519 9.54064 27.8149 12.4635 31.7344C12.6708 31.9911 12.9518 32.18 13.2697 32.2762C13.5877 32.3724 13.9277 32.3715 14.2451 32.2736C14.5745 32.1711 14.8652 31.9737 15.0799 31.7067C15.2947 31.4397 15.4235 31.1155 15.4499 30.7757C15.8863 26.0403 17.7855 23.5986 18.5008 23.5986C19.2161 23.5986 21.1134 26.0328 21.5517 30.7738C21.5796 31.1124 21.7094 31.435 21.9244 31.7002C22.1394 31.9654 22.4298 32.1612 22.7584 32.2624C23.0753 32.3609 23.4151 32.3623 23.7328 32.2663C24.0505 32.1704 24.3313 31.9816 24.5381 31.725C27.461 27.8055 29.1865 23.1425 29.511 18.2865C29.9986 11.087 23.6805 8.53859 18.6355 12.4145ZM28.217 18.191C27.9178 22.7889 26.2931 27.2066 23.5344 30.9236C23.4894 30.9822 23.4272 31.0257 23.3562 31.0481C23.2853 31.0706 23.209 31.0709 23.1379 31.049C23.0565 31.0231 22.9851 30.9734 22.9329 30.9065C22.8808 30.8397 22.8503 30.7588 22.8457 30.6746C22.4188 26.074 20.4702 22.3328 18.5008 22.3328C16.5314 22.3328 14.581 26.0777 14.156 30.6764C14.0858 31.094 13.7177 31.1913 13.4672 30.9292C10.737 27.6375 6.5496 17.7004 10.1792 13.2515C13.5944 9.51975 19.2863 14.2945 20.1135 15.3112C20.2335 15.4212 20.3912 15.4824 20.555 15.4824C20.7188 15.4825 20.8766 15.4214 20.9966 15.3115C21.1167 15.2015 21.1901 15.0508 21.2023 14.8896C21.2145 14.7284 21.1644 14.5687 21.0622 14.4424C20.6459 14.0084 20.2023 13.6006 19.7341 13.2216C23.8513 10.2949 28.5718 12.2142 28.217 18.191ZM14.8428 15.6707C14.5587 15.5855 14.2587 15.5652 13.9655 15.6112C13.6723 15.6573 13.3936 15.7685 13.1504 15.9366C12.0006 16.8728 12.3611 18.6591 12.5337 19.9586C12.5494 20.0413 12.5485 20.1263 12.5309 20.2087C12.5133 20.2911 12.4795 20.3692 12.4313 20.4387C12.3831 20.5081 12.3215 20.5676 12.2501 20.6135C12.1786 20.6595 12.0987 20.6911 12.0148 20.7066C11.931 20.7221 11.8449 20.7212 11.7614 20.7038C11.6779 20.6865 11.5988 20.6531 11.5284 20.6055C11.3862 20.5095 11.2886 20.3616 11.2569 20.1945C10.5567 17.4121 11.4219 13.5773 15.1824 14.433C15.3398 14.4851 15.471 14.5945 15.5493 14.7389C15.6277 14.8833 15.6471 15.0518 15.6037 15.2098C15.5604 15.3679 15.4574 15.5037 15.316 15.5894C15.1745 15.675 15.0053 15.7041 14.8428 15.6707Z" fill="#FAFAFA"/>
</g>
</svg>
