<svg width="52" height="54" viewBox="0 0 52 54" fill="none" xmlns="http://www.w3.org/2000/svg">
<g id="Component 13">
<path id="dentist" d="M13.1963 23.8644C13.2249 24.0279 13.1912 24.1968 13.1025 24.334C13.0139 24.4711 12.8775 24.5652 12.7235 24.5956C12.5695 24.626 12.4105 24.5901 12.2813 24.496C12.1522 24.4018 12.0636 24.257 12.035 24.0934C11.5276 20.1715 10.7701 15.4506 14.2197 12.6008C14.9816 12.0459 15.8502 11.6778 16.7625 11.5232C17.6749 11.3685 18.6082 11.4311 19.4949 11.7064C19.5698 11.7278 19.64 11.7647 19.7015 11.8149C19.763 11.8652 19.8145 11.9278 19.8532 11.9992C19.8919 12.0706 19.917 12.1493 19.927 12.231C19.9371 12.3127 19.9319 12.3957 19.9117 12.4752C19.8915 12.5548 19.8568 12.6293 19.8095 12.6946C19.7622 12.7599 19.7033 12.8146 19.636 12.8557C19.5688 12.8968 19.4946 12.9235 19.4177 12.9341C19.3408 12.9448 19.2627 12.9392 19.1878 12.9178C18.4624 12.6931 17.6992 12.6422 16.9531 12.769C16.207 12.8958 15.4968 13.197 14.8737 13.6509C12.0264 16.0132 12.7511 20.5106 13.1963 23.8644ZM29.4174 23.4978C29.2662 23.5065 29.1238 23.5764 29.0197 23.6932C28.9155 23.8099 28.8574 23.9647 28.8574 24.1255C28.8574 24.2864 28.9155 24.4411 29.0197 24.5578C29.1238 24.6746 29.2662 24.7445 29.4174 24.7532H30.9929C31.1441 24.7445 31.2865 24.6746 31.3906 24.5578C31.4948 24.4411 31.5528 24.2864 31.5528 24.1255C31.5528 23.9647 31.4948 23.8099 31.3906 23.6932C31.2865 23.5764 31.1441 23.5065 30.9929 23.4978H29.4174ZM34.9394 23.4978C34.7882 23.5065 34.6459 23.5764 34.5417 23.6932C34.4375 23.8099 34.3795 23.9647 34.3795 24.1255C34.3795 24.2864 34.4375 24.4411 34.5417 24.5578C34.6459 24.6746 34.7882 24.7445 34.9394 24.7532C35.7125 24.6689 37.093 25.0849 37.1051 24.1264C37.1172 23.1679 35.7108 23.5913 34.936 23.507L34.9394 23.4978ZM32.967 25.5981C32.0645 25.6091 32.4493 27.0752 32.3751 27.8981C32.3756 28.0646 32.4381 28.2242 32.549 28.342C32.6599 28.4598 32.8102 28.5262 32.967 28.5267C33.8695 28.5138 33.4847 27.0477 33.5572 26.2248C33.5572 26.0586 33.495 25.8992 33.3843 25.7816C33.2737 25.6641 33.1236 25.5981 32.967 25.5981ZM33.5572 20.3713C33.5572 20.2051 33.495 20.0456 33.3843 19.9281C33.2737 19.8105 33.1236 19.7445 32.967 19.7445C32.8105 19.7445 32.6604 19.8105 32.5497 19.9281C32.439 20.0456 32.3769 20.2051 32.3769 20.3713C32.4545 21.1905 32.0628 22.6585 32.967 22.6695C33.8713 22.6804 33.4778 21.1905 33.5572 20.3713ZM44.4167 13.6985C44.3427 13.7231 44.274 13.763 44.2146 13.8159C44.1551 13.8688 44.1061 13.9336 44.0704 14.0067C44.0346 14.0798 44.0128 14.1596 44.0062 14.2416C43.9996 14.3237 44.0083 14.4063 44.0319 14.4848C44.6226 16.4821 44.8492 18.5807 44.6997 20.6682C43.9594 30.308 40.6461 39.99 36.0525 45.9315C35.8849 46.149 35.6587 46.3068 35.4042 46.3837C35.1497 46.4606 34.8792 46.453 34.6289 46.3618C34.3787 46.2706 34.1607 46.1002 34.0042 45.8736C33.8478 45.647 33.7605 45.3749 33.7539 45.094C32.9411 35.6686 29.3156 29.333 26.4372 29.333C23.5588 29.333 19.9333 35.6667 19.1222 45.094C19.1153 45.3745 19.0277 45.646 18.8714 45.8722C18.7151 46.0984 18.4974 46.2684 18.2475 46.3595C17.9977 46.4506 17.7275 46.4585 17.4734 46.382C17.2192 46.3055 16.9931 46.1483 16.8254 45.9315C11.8124 39.8269 3.94863 18.7109 10.8857 10.5024C17.6036 2.87662 27.9937 12.302 29.8074 14.5691C30.3251 15.1812 31.2034 14.3015 30.6702 13.7187C29.7458 12.6964 28.7514 11.7481 27.6952 10.8817C29.3363 9.63001 34.0645 6.48332 38.4477 8.0026C38.5213 8.02883 38.5991 8.03924 38.6765 8.0332C38.754 8.02717 38.8295 8.00483 38.8988 7.96747C38.968 7.93011 39.0295 7.87849 39.0798 7.81561C39.13 7.75273 39.168 7.67986 39.1914 7.60124C39.2399 7.44303 39.2274 7.27085 39.1565 7.12244C39.0857 6.97404 38.9623 6.86151 38.8135 6.80953C33.5676 4.98969 28.1559 8.9226 26.7047 10.0955C17.1291 2.19853 5.9728 7.37949 6.99956 20.7781C7.75884 30.6544 11.1739 40.6021 15.9073 46.7306C16.1349 47.0332 16.4237 47.2775 16.7523 47.4453C17.0809 47.6131 17.4409 47.7002 17.8055 47.7001C18.4397 47.6912 19.0478 47.431 19.5107 46.9706C19.9736 46.5102 20.2579 45.8827 20.3077 45.2113C21.0756 36.288 24.4493 30.5902 26.4458 30.5902C28.4424 30.5902 31.8178 36.2862 32.5857 45.2095C32.6219 45.7337 32.8043 46.2347 33.1095 46.6485C33.4147 47.0624 33.8291 47.3704 34.2997 47.5333C34.7703 47.6963 35.2759 47.7067 35.7522 47.5635C36.2284 47.4202 36.6538 47.1296 36.974 46.7287C41.7109 40.5985 45.1259 30.6526 45.8852 20.7708C46.0467 18.5207 45.8031 16.2586 45.1673 14.1054C45.1441 14.0257 45.106 13.9518 45.0554 13.888C45.0048 13.8242 44.9427 13.7718 44.8728 13.7339C44.8028 13.6959 44.7264 13.6733 44.6481 13.6672C44.5698 13.6611 44.4911 13.6718 44.4167 13.6985ZM37.6504 10.6985C37.6608 11.6588 39.0413 11.2483 39.8161 11.3271C39.8941 11.3275 39.9715 11.3116 40.0437 11.2803C40.1159 11.2489 40.1815 11.2027 40.2369 11.1442C40.2922 11.0858 40.3361 11.0164 40.3661 10.9399C40.396 10.8634 40.4115 10.7813 40.4115 10.6985C40.4011 9.73997 39.0189 10.1487 38.2458 10.0717C38.1678 10.071 38.0905 10.0866 38.0183 10.1178C37.9461 10.149 37.8805 10.195 37.8251 10.2533C37.7698 10.3116 37.7258 10.3809 37.6958 10.4573C37.6659 10.5337 37.6504 10.6157 37.6504 10.6985ZM43.754 11.3271C44.5288 11.2428 45.9076 11.6588 45.9197 10.6985C45.9318 9.73814 44.5271 10.1487 43.754 10.0717C43.6105 10.0911 43.4787 10.1656 43.3834 10.2812C43.2881 10.3967 43.236 10.5453 43.2368 10.699C43.2377 10.8526 43.2915 11.0005 43.388 11.1149C43.4846 11.2293 43.6172 11.3021 43.7609 11.3197L43.754 11.3271ZM41.792 15.0822C42.6945 15.0712 42.3097 13.6032 42.3821 12.7822C42.3799 12.6176 42.3167 12.4605 42.2063 12.3449C42.0958 12.2293 41.947 12.1646 41.792 12.1646C40.8895 12.1756 41.2743 13.6436 41.2018 14.4646C41.2041 14.6292 41.2672 14.7863 41.3777 14.9019C41.4881 15.0174 41.6369 15.0822 41.792 15.0822ZM41.792 9.22682C42.6945 9.21583 42.3097 7.76069 42.3821 6.92682C42.3821 6.76059 42.32 6.60117 42.2093 6.48363C42.0986 6.36608 41.9485 6.30005 41.792 6.30005C40.8895 6.31104 41.2743 7.77901 41.2018 8.60005C41.2011 8.68282 41.2159 8.76491 41.2452 8.84159C41.2746 8.91827 41.3179 8.98802 41.3728 9.0468C41.4277 9.10559 41.493 9.15225 41.5649 9.18409C41.6369 9.21593 41.714 9.23232 41.792 9.23232V9.22682Z" fill="#FAFAFA"/>
</g>
</svg>
