<svg width="46" height="45" viewBox="0 0 46 45" fill="none" xmlns="http://www.w3.org/2000/svg">
<g id="Layer 1">
<path id="braces" d="M45.3382 17.3383H43.06C44.6876 1.2474 33.1437 -4.1585 23.156 3.4264C11.4531 -5.25008 0.984056 3.71124 2.94407 17.3383H0.661807C0.483068 17.3481 0.314832 17.4275 0.191724 17.5599C0.068615 17.6924 0 17.8679 0 18.0504C0 18.2329 0.068615 18.4084 0.191724 18.5409C0.314832 18.6734 0.483068 18.7527 0.661807 18.7625H3.09907C3.98668 27.7876 7.05605 36.4475 12.0323 43.9665C12.3692 44.4069 12.8326 44.7293 13.3577 44.8885C13.8828 45.0478 14.4436 45.0361 14.9619 44.8551C15.4802 44.6741 15.9302 44.3328 16.2492 43.8787C16.5683 43.4246 16.7404 42.8804 16.7416 42.3219C17.5248 32.7846 20.9146 29.3165 23.0112 29.3165C25.1079 29.3165 28.4874 32.7784 29.2726 42.3136C29.2746 42.872 29.4472 43.416 29.7665 43.8698C30.0857 44.3235 30.5358 44.6646 31.0541 44.8455C31.5723 45.0264 32.133 45.0382 32.6581 44.8792C33.1832 44.7201 33.6467 44.3982 33.984 43.9582C38.9542 36.4401 42.0192 27.7835 42.905 18.7625H45.3382C45.5169 18.7527 45.6852 18.6734 45.8083 18.5409C45.9314 18.4084 46 18.2329 46 18.0504C46 17.8679 45.9314 17.6924 45.8083 17.5599C45.6852 17.4275 45.5169 17.3481 45.3382 17.3383ZM32.8582 43.1078C32.0954 44.1079 30.7941 43.584 30.6555 42.1992C29.8396 32.321 26.2256 27.9006 23.0031 27.9006C19.7806 27.9006 16.1624 32.323 15.3507 42.2075C15.2079 43.5923 13.923 44.1079 13.1479 43.1141C8.34549 35.8456 5.37717 27.481 4.50636 18.7625H12.995V20.8958C12.9955 21.8393 13.3633 22.7441 14.0176 23.4114C14.6718 24.0788 15.5591 24.4543 16.4847 24.4554H29.5154C30.4407 24.4537 31.3277 24.0781 31.9819 23.4108C32.636 22.7436 33.0039 21.8391 33.005 20.8958V18.7625H41.4998C40.6286 27.479 37.6603 35.8415 32.8582 43.1078ZM31.61 17.3383H26.4907C26.3989 16.6355 26.8537 14.9805 25.7932 14.9659C24.7326 14.9514 25.1813 16.6293 25.0936 17.3383H20.9064C20.8146 16.6334 21.2694 14.9805 20.2068 14.9701C19.1442 14.9597 19.595 16.6334 19.5093 17.3424H14.39V15.203C14.3911 14.637 14.6121 14.0945 15.0047 13.6943C15.3973 13.294 15.9295 13.0687 16.4847 13.0676H29.5154C30.0705 13.0687 30.6027 13.294 30.9953 13.6943C31.3879 14.0945 31.6089 14.637 31.61 15.203V17.3383ZM19.5093 18.7625C19.6011 19.4695 19.1463 21.1183 20.2068 21.1328C21.2674 21.1474 20.8187 19.4695 20.9064 18.7625H25.0936C25.1854 19.4695 24.7306 21.1183 25.7932 21.1328C26.8558 21.1474 26.405 19.4695 26.4907 18.7625H31.61V20.8958C31.6094 21.4619 31.3886 22.0048 30.9959 22.4051C30.6032 22.8054 30.0707 23.0306 29.5154 23.0311H16.4847C15.9293 23.0306 15.3968 22.8054 15.0041 22.4051C14.6114 22.0048 14.3906 21.4619 14.39 20.8958V18.7625H19.5093ZM41.8016 15.7477C41.7608 16.2779 41.7119 16.8081 41.6588 17.3383H33.005V15.203C33.0039 14.2596 32.636 13.3552 31.9819 12.6879C31.3277 12.0206 30.4407 11.645 29.5154 11.6434H16.4847C15.5591 11.6445 14.6718 12.0199 14.0176 12.6873C13.3633 13.3547 12.9955 14.2594 12.995 15.203V17.3383H4.34728C3.20921 10.3584 6.13596 1.38879 13.9474 1.40334C20.317 1.41582 26.3602 8.06924 26.4193 8.13577C27.0169 8.82606 28.0734 7.84884 27.4493 7.17726C26.4877 6.13713 25.4455 5.1776 24.3328 4.30797C32.9479 -2.11258 42.4991 2.40759 41.8016 15.7477Z" fill="#FAFAFA"/>
</g>
</svg>
