<svg width="41" height="42" viewBox="0 0 41 42" fill="none" xmlns="http://www.w3.org/2000/svg">
<g id="Layer 1">
<path id="tooth jewelry" d="M40.6852 16.4454C40.0963 25.3194 36.8633 33.7956 31.4219 40.7322C31.1066 41.1375 30.6788 41.4356 30.1947 41.5874C29.7106 41.7392 29.1929 41.7375 28.7098 41.5826C28.2062 41.4208 27.7614 41.1087 27.4323 40.6865C27.1033 40.2643 26.905 39.7511 26.8629 39.2128C26.0639 30.2888 22.551 24.5923 20.4819 24.5923C18.4128 24.5923 14.8981 30.2888 14.0992 39.2146C14.0611 39.7389 13.8714 40.2397 13.5543 40.6534C13.2372 41.0671 12.8071 41.375 12.3185 41.5379C11.83 41.7008 11.3051 41.7113 10.8106 41.5682C10.3162 41.425 9.87456 41.1347 9.54186 40.734C4.61731 34.6051 1.06677 24.6565 0.276766 14.7794C-0.817776 2.07244 9.87327 -3.27574 19.7725 2.88805C19.9122 2.97336 20.013 3.11194 20.0528 3.27332C20.0927 3.4347 20.0682 3.60565 19.9848 3.74856C19.9014 3.89147 19.766 3.99464 19.6082 4.03537C19.4505 4.0761 19.2834 4.05106 19.1437 3.96575C17.0388 2.68277 9.7837 -1.05436 4.31994 4.50277C-2.89221 12.7138 5.28013 33.8279 10.4931 39.9367C10.6675 40.1535 10.9024 40.3107 11.1665 40.3873C11.4305 40.4639 11.7111 40.4563 11.9708 40.3655C12.2305 40.2747 12.4569 40.105 12.6199 39.879C12.7829 39.6531 12.8746 39.3817 12.8828 39.101C13.7248 29.6729 17.4939 23.3387 20.4855 23.3387C23.4771 23.3387 27.2444 29.6711 28.0882 39.101C28.0961 39.3818 28.1875 39.6535 28.3503 39.8797C28.5132 40.1059 28.7396 40.2759 28.9994 40.367C29.2591 40.458 29.5399 40.4658 29.8041 40.3892C30.0683 40.3127 30.3033 40.1555 30.4779 39.9386C35.7603 33.1981 38.8964 24.963 39.4635 16.3428C39.4768 16.1771 39.5539 16.0235 39.6779 15.9159C39.8019 15.8083 39.9625 15.7555 40.1245 15.7691C40.2866 15.7827 40.4366 15.8616 40.5418 15.9885C40.6469 16.1153 40.6986 16.2797 40.6852 16.4454ZM8.45986 7.64789C9.10679 7.1942 9.84409 6.8931 10.6186 6.76632C11.393 6.63954 12.1853 6.69024 12.9383 6.91476C13.0954 6.95802 13.2628 6.93569 13.4037 6.85269C13.5446 6.76968 13.6475 6.63279 13.6898 6.47214C13.7321 6.31148 13.7103 6.14022 13.6292 5.99603C13.548 5.85184 13.4142 5.74653 13.2572 5.70327C12.3354 5.4278 11.3653 5.36531 10.4169 5.52031C9.46863 5.67531 8.56582 6.04393 7.77375 6.59952C4.19096 9.44772 4.97738 14.1691 5.50405 18.0913C5.53399 18.2549 5.6262 18.3996 5.76041 18.4936C5.82687 18.5402 5.90164 18.5729 5.98044 18.5898C6.05925 18.6068 6.14056 18.6078 6.21972 18.5926C6.29888 18.5774 6.37434 18.5465 6.44181 18.5015C6.50927 18.4565 6.56741 18.3983 6.61291 18.3303C6.6584 18.2623 6.69036 18.1858 6.70697 18.1052C6.72357 18.0246 6.72448 17.9414 6.70966 17.8604C6.25465 14.5118 5.50047 10.0141 8.45986 7.64789ZM18.2624 10.0306L23.581 0.613513C23.6356 0.517444 23.7141 0.437856 23.8085 0.382816C23.9029 0.327777 24.0098 0.299241 24.1184 0.3001H34.7593C34.868 0.298671 34.9752 0.326966 35.0697 0.382062C35.1641 0.437159 35.2425 0.51706 35.2967 0.613513L40.6172 10.0287C40.6709 10.1244 40.6992 10.2327 40.6992 10.3431C40.6992 10.4534 40.6709 10.5618 40.6172 10.6574L35.2967 20.0744C35.2425 20.1709 35.1641 20.2508 35.0697 20.3059C34.9752 20.361 34.868 20.3893 34.7593 20.3879H24.1184C24.0098 20.3887 23.9029 20.3602 23.8085 20.3051C23.7141 20.2501 23.6356 20.1705 23.581 20.0744L18.2624 10.6574C18.2079 10.562 18.1792 10.4535 18.1792 10.3431C18.1792 10.2326 18.2079 10.1241 18.2624 10.0287V10.0306ZM34.5139 10.9726L32.504 14.5246L34.7539 18.5055L39.0121 10.9708L34.5139 10.9726ZM19.8549 10.9726L24.1131 18.5074L26.3631 14.5265L24.3531 10.9708L19.8549 10.9726ZM27.4289 6.79013L25.4154 10.344L27.4289 13.8997H31.4417L33.4516 10.344L31.4417 6.79013H27.4289ZM25.1807 19.1324H33.6988L31.4417 15.146H27.4289L25.1807 19.1324ZM33.6988 1.55558H25.1754L27.4289 5.53465H31.4417L33.6988 1.55558ZM24.1202 2.18058L19.8549 9.71532H24.3531L26.3631 6.16514L24.1202 2.18058ZM34.7611 2.18058L32.504 6.16514L34.5139 9.71898H39.0121L34.7611 2.18058Z" fill="#FAFAFA"/>
</g>
</svg>
