<svg width="41" height="42" viewBox="0 0 41 42" fill="none" xmlns="http://www.w3.org/2000/svg">
<g id="Layer 1">
<path id="core buildup" d="M39.7743 7.72859C39.7464 7.64341 39.701 7.56529 39.6412 7.49947C39.5814 7.43364 39.5085 7.38162 39.4274 7.34689C39.3463 7.31215 39.2589 7.2955 39.171 7.29805C39.0831 7.3006 38.9968 7.32229 38.9178 7.36166C38.1056 7.7812 37.208 7.9993 36.2979 7.99828C34.7422 7.99732 33.2502 7.36632 32.1489 6.24353C31.0476 5.12074 30.4268 3.59772 30.4226 2.00816C30.401 1.45777 30.8086 0.320285 29.8839 0.309277C26.5356 0.646767 23.349 1.94489 20.6919 4.05379C12.52 -2.10879 3.68177 -0.648408 0.851826 8.17624C0.823262 8.27798 0.82005 8.38541 0.842483 8.48874C0.864917 8.59207 0.912283 8.68803 0.980272 8.76789C1.04826 8.84775 1.13472 8.90897 1.23177 8.94598C1.32882 8.983 1.43339 8.99463 1.53597 8.97982C3.76292 8.98273 5.89785 9.88789 7.47255 11.4968C9.04725 13.1057 9.93316 15.287 9.93601 17.5623C9.93745 19.5815 9.23998 21.5361 7.96695 23.0805C6.69392 24.625 4.92736 25.6597 2.97967 26.0017C2.8938 26.0175 2.81217 26.0517 2.74018 26.1021C2.66819 26.1525 2.60746 26.2178 2.56199 26.2939C2.51653 26.37 2.48735 26.4551 2.4764 26.5436C2.46545 26.632 2.47296 26.7218 2.49844 26.8071C3.94338 31.8553 6.30772 36.5796 9.46735 40.7321C9.80019 41.1335 10.2425 41.4247 10.7379 41.5683C11.2333 41.712 11.7593 41.7017 12.2489 41.5387C12.7386 41.3758 13.1696 41.0676 13.4872 40.6533C13.8047 40.2391 13.9943 39.7377 14.0319 39.213C14.8633 29.904 18.4797 22.8993 20.419 22.8993C22.3583 22.8993 25.9747 29.904 26.8079 39.2093C26.8498 39.7485 27.0484 40.2625 27.3783 40.6856C27.7082 41.1086 28.1542 41.4212 28.6592 41.5833C29.1435 41.7378 29.6621 41.739 30.147 41.5867C30.6319 41.4345 31.0603 41.1359 31.3761 40.7302C33.8296 37.5478 35.7877 33.9975 37.1814 30.2049C37.215 30.1134 37.2274 30.0153 37.2178 29.9182C37.2081 29.821 37.1765 29.7275 37.1256 29.6449C37.0746 29.5623 37.0057 29.4928 36.9241 29.442C36.8425 29.3911 36.7505 29.3602 36.6553 29.3517C35.0992 29.2892 33.6311 28.5977 32.5741 27.4292C31.517 26.2608 30.9575 24.7112 31.0187 23.1213C31.0799 21.5314 31.7568 20.0314 32.9004 18.9514C34.044 17.8714 35.5606 17.2998 37.1168 17.3623C38.0738 17.1917 39.478 18.0962 40.0562 17.8595C40.1398 17.8119 40.2112 17.7449 40.2648 17.664C40.3185 17.5831 40.3528 17.4904 40.3651 17.3935C40.9622 14.1721 40.759 10.8491 39.7743 7.72859ZM39.4152 14.6489C39.3703 15.1993 39.3128 15.7845 39.2356 16.4468C38.3171 16.1593 37.351 16.0653 36.3959 16.1705C35.4408 16.2757 34.5165 16.578 33.6791 17.059C32.8417 17.54 32.1086 18.1897 31.5242 18.9687C30.9399 19.7478 30.5164 20.6399 30.2795 21.5911C30.0425 22.5424 29.9971 23.5328 30.146 24.5025C30.2948 25.4722 30.6347 26.4009 31.1453 27.2323C31.6558 28.0638 32.3262 28.7807 33.1159 29.3396C33.9056 29.8985 34.7982 30.2877 35.7395 30.4837C34.4276 33.8852 32.6344 37.0717 30.4172 39.9413C30.2424 40.158 30.007 40.3151 29.7425 40.3915C29.478 40.4679 29.1969 40.46 28.937 40.3688C28.677 40.2777 28.4504 40.1077 28.2875 39.8814C28.1246 39.6552 28.0332 39.3836 28.0254 39.1029C27.2084 29.97 23.5794 21.6499 20.4118 21.6499C17.2443 21.6499 13.6243 29.97 12.8073 39.1047C10.9631 45.0141 4.60473 29.9058 3.87749 27.097C6.07902 26.5145 8.00801 25.1553 9.32332 23.2598C10.6386 21.3644 11.2555 19.0547 11.0648 16.7393C10.8742 14.424 9.88829 12.2521 8.28151 10.6078C6.67473 8.96352 4.55059 7.95275 2.28475 7.75428C2.69651 6.52885 3.36229 5.40867 4.23662 4.47026C10.5663 -2.31794 19.8965 4.17671 23.9259 8.54134C24.4646 9.14677 25.3804 8.28082 24.8237 7.69006C23.8579 6.66186 22.8177 5.70943 21.7119 4.84086C23.9211 3.16893 26.4919 2.06516 29.2069 1.62288C29.1529 2.82532 29.3912 4.02271 29.9006 5.10808C30.41 6.19345 31.1746 7.13299 32.1261 7.84277C33.0776 8.55254 34.1864 9.01045 35.3533 9.17557C36.5203 9.34069 37.7092 9.20788 38.8136 8.78902C39.3562 10.6897 39.5629 12.674 39.4242 14.6489H39.4152ZM1.62036 23.613C0.562192 19.6751 0.090631 15.5967 0.221553 11.5153C0.225535 11.4302 0.246397 11.3468 0.282874 11.2701C0.319351 11.1935 0.370684 11.1252 0.433758 11.0695C0.496832 11.0137 0.570334 10.9716 0.649807 10.9457C0.729279 10.9199 0.813066 10.9108 0.896085 10.919C0.979105 10.9272 1.05963 10.9525 1.13277 10.9935C1.20591 11.0345 1.27015 11.0902 1.32159 11.1573C1.37303 11.2243 1.4106 11.3014 1.43201 11.3838C1.45343 11.4661 1.45825 11.5521 1.44619 11.6364C1.33045 15.5762 1.79164 19.5116 2.81447 23.3121C2.84354 23.4701 2.8123 23.6335 2.72716 23.7688C2.64202 23.904 2.50944 24.0008 2.35663 24.0393C2.20383 24.0778 2.0424 24.0551 1.90548 23.9758C1.76856 23.8965 1.66654 23.7667 1.62036 23.613ZM32.6384 1.20275C33.0963 -0.575022 39.6217 4.47393 38.1223 5.49032C37.3771 5.96183 37.027 4.83535 36.5852 4.45008C35.6166 3.33949 34.3894 2.49646 33.0173 1.99899C32.9412 1.97217 32.871 1.93029 32.8108 1.87575C32.7506 1.82121 32.7015 1.75507 32.6663 1.68112C32.6311 1.60717 32.6105 1.52685 32.6057 1.44477C32.601 1.36269 32.6121 1.28045 32.6384 1.20275ZM39.821 20.8573C39.4305 22.9026 38.9281 24.9238 38.3162 26.9117C38.2963 26.9951 38.2599 27.0735 38.2091 27.1419C38.1584 27.2104 38.0944 27.2675 38.0212 27.3096C37.9479 27.3518 37.867 27.3782 37.7834 27.3871C37.6998 27.396 37.6153 27.3873 37.5352 27.3615C37.455 27.3357 37.3808 27.2934 37.3173 27.2371C37.2538 27.1809 37.2023 27.1119 37.1659 27.0345C37.1296 26.957 37.1092 26.8728 37.1059 26.787C37.1027 26.7012 37.1168 26.6156 37.1473 26.5356C37.744 24.5928 38.2338 22.6175 38.6143 20.6188C38.65 20.4596 38.7449 20.3208 38.8788 20.2318C39.0128 20.1427 39.1755 20.1103 39.3324 20.1416C39.4893 20.1728 39.6282 20.2651 39.7197 20.399C39.8112 20.5329 39.8482 20.6979 39.8228 20.8592L39.821 20.8573Z" fill="#FAFAFA"/>
</g>
</svg>
