<svg width="37" height="43" viewBox="0 0 37 43" fill="none" xmlns="http://www.w3.org/2000/svg">
<g id="Layer 1">
<path id="tooth pain" d="M11.5949 11.0153C5.5059 9.67452 5.02851 16.2023 6.00459 20.8482C6.01974 20.9308 6.01932 21.0158 6.00335 21.0982C5.98738 21.1807 5.95617 21.259 5.91151 21.3287C5.86685 21.3985 5.80961 21.4582 5.74306 21.5046C5.67651 21.551 5.60196 21.5831 5.52365 21.5991C5.3655 21.6314 5.20167 21.596 5.06821 21.5009C4.93475 21.4057 4.84259 21.2585 4.81199 21.0916C4.48479 19.3104 4.36205 17.494 4.4464 15.6817C4.44299 14.7264 4.65115 13.7834 5.05429 12.928C5.45743 12.0726 6.04439 11.3284 6.76839 10.7547C7.49239 10.181 8.3334 9.79377 9.22437 9.62379C10.1153 9.4538 11.0316 9.5058 11.9002 9.77564C12.0549 9.8194 12.1869 9.9259 12.2675 10.0719C12.3481 10.218 12.3707 10.3917 12.3304 10.5553C12.2902 10.7188 12.1903 10.859 12.0525 10.9451C11.9147 11.0313 11.7502 11.0565 11.5949 11.0153ZM28.3943 41.6956C28.0936 42.0789 27.6907 42.3579 27.2378 42.4965C26.7849 42.6351 26.303 42.6268 25.8547 42.4727C25.3985 42.3253 24.9946 42.0371 24.6951 41.6452C24.3956 41.2534 24.2141 40.7759 24.174 40.2743C23.4535 32.2222 20.2963 27.0876 18.44 27.0876C16.5836 27.0876 13.4211 32.226 12.7023 40.2762C12.6486 40.9116 12.3712 41.5028 11.9247 41.9329C11.4782 42.3631 10.8951 42.6012 10.2905 42.6C9.94469 42.5983 9.60345 42.5164 9.29095 42.3601C8.97845 42.2038 8.70232 41.9769 8.48209 41.6956C3.42062 35.6415 -4.21061 15.9533 2.96275 7.948C6.31339 4.54366 10.6543 4.01559 15.5188 6.42934C16.3063 7.05638 17.2421 7.44259 18.2238 7.54565C19.2055 7.6487 20.1952 7.46462 21.0843 7.01359L21.4587 3.84706C21.4787 3.67845 21.5614 3.52513 21.6885 3.42083C21.8157 3.31653 21.9769 3.2698 22.1367 3.2909C22.2965 3.31201 22.4418 3.39923 22.5406 3.53338C22.6395 3.66753 22.6838 3.83762 22.6638 4.00623L22.394 6.31886C23.9869 5.51654 25.7198 5.07027 27.4839 5.00806L28.783 0.746073C28.8319 0.584168 28.9398 0.449414 29.0829 0.371452C29.1538 0.33285 29.2312 0.309353 29.3106 0.302302C29.3901 0.295252 29.4701 0.304786 29.5461 0.33036C29.6221 0.355935 29.6925 0.397049 29.7534 0.451356C29.8143 0.505662 29.8645 0.572097 29.9011 0.646868C29.9377 0.721638 29.96 0.80328 29.9667 0.887131C29.9733 0.970983 29.9643 1.0554 29.9401 1.13557L28.7421 5.08296C30.2355 5.29434 31.6464 5.92994 32.824 6.92183L34.1568 4.61856C34.1964 4.54259 34.2503 4.47589 34.3151 4.42248C34.3798 4.36906 34.4542 4.33004 34.5336 4.30778C34.6131 4.28551 34.696 4.28046 34.7774 4.29292C34.8587 4.30538 34.9368 4.3351 35.007 4.38028C35.0772 4.42547 35.1379 4.48518 35.1856 4.55582C35.2334 4.62647 35.267 4.70657 35.2846 4.79131C35.3021 4.87605 35.3032 4.96366 35.2878 5.04887C35.2724 5.13407 35.2409 5.2151 35.195 5.28707L33.7521 7.78322C34.722 8.81223 35.4644 10.0546 35.9261 11.4216C38.9467 20.9493 33.3972 35.3906 28.3943 41.6956ZM16.0051 8.11654C17.5473 17.4794 30.0252 19.7752 34.6856 11.5958C34.3136 10.6056 33.7749 9.69458 33.0955 8.90676L30.9126 12.6706C30.8724 12.7453 30.8184 12.8108 30.7538 12.863C30.6892 12.9152 30.6152 12.9532 30.5364 12.9747C30.4576 12.9961 30.3755 13.0006 30.295 12.9879C30.2145 12.9752 30.1372 12.9456 30.0678 12.9007C29.9983 12.8559 29.9382 12.7967 29.8909 12.7268C29.8435 12.6569 29.81 12.5777 29.7923 12.4939C29.7746 12.41 29.7731 12.3233 29.7878 12.2388C29.8025 12.1543 29.8331 12.0739 29.8779 12.0021L32.1851 8.01729C31.0934 7.06905 29.7603 6.48268 28.3535 6.33197L26.7332 11.6707C26.7089 11.7509 26.67 11.8252 26.6185 11.8895C26.567 11.9538 26.5041 12.0067 26.4332 12.0453C26.3623 12.0839 26.285 12.1074 26.2055 12.1145C26.126 12.1215 26.046 12.112 25.97 12.0864C25.8941 12.0608 25.8236 12.0197 25.7627 11.9654C25.7018 11.9111 25.6516 11.8447 25.615 11.7699C25.5784 11.6951 25.5561 11.6135 25.5495 11.5296C25.5428 11.4458 25.5518 11.3614 25.5761 11.2812L27.0899 6.29639C25.3785 6.44491 23.7157 6.97124 22.2094 7.84127L21.6664 12.4216C21.6399 12.5845 21.5549 12.7304 21.4291 12.8289C21.3033 12.9274 21.1464 12.9709 20.9909 12.9504C20.8355 12.9299 20.6935 12.8469 20.5945 12.7188C20.4956 12.5907 20.4472 12.4272 20.4596 12.2624L20.905 8.49667C20.1252 8.80876 19.291 8.941 18.4587 8.88447C17.6263 8.82795 16.8151 8.58397 16.0796 8.16897L16.0051 8.11654ZM35.1719 13.1182L35.1559 13.1294C29.1823 21.7227 15.659 18.0412 14.6829 7.42743C7.0144 3.51749 0.387649 9.45356 1.275 18.0187C1.97246 26.7412 5.08885 35.4992 9.41203 40.8735C9.55897 41.0611 9.75634 41.1973 9.97811 41.2642C10.1999 41.331 10.4356 41.3254 10.6543 41.248C10.8812 41.1744 11.082 41.0306 11.2307 40.8353C11.3793 40.6401 11.4691 40.4022 11.4884 40.1526C12.2569 31.5687 15.6998 25.803 18.4364 25.803C21.173 25.803 24.6124 31.5668 25.3826 40.1488C25.3998 40.396 25.4864 40.6321 25.6313 40.8271C25.7762 41.0221 25.9729 41.1671 26.1963 41.2437C26.4196 41.3202 26.6595 41.3248 26.8854 41.2569C27.1112 41.189 27.3128 41.0516 27.4643 40.8623C31.7858 35.4899 34.9039 26.7318 35.5996 18.0169C35.7223 16.3702 35.5777 14.7135 35.1719 13.1182Z" fill="#F4F4F4"/>
</g>
</svg>
