<svg width="56" height="54" viewBox="0 0 56 54" fill="none" xmlns="http://www.w3.org/2000/svg">
<g id="Component 13">
<path id="dental imaging" d="M47.1334 6.30005H9.80023C9.18152 6.30053 8.58829 6.54301 8.15079 6.97424C7.71329 7.40547 7.46729 7.9902 7.4668 8.60005V45.4C7.46729 46.0099 7.71329 46.5946 8.15079 47.0259C8.58829 47.4571 9.18152 47.6996 9.80023 47.7001H47.1334C47.7521 47.6996 48.3453 47.4571 48.7828 47.0259C49.2203 46.5946 49.4663 46.0099 49.4668 45.4V8.60005C49.4663 7.9902 49.2203 7.40547 48.7828 6.97424C48.3453 6.54301 47.7521 6.30053 47.1334 6.30005V6.30005ZM48.195 45.4C48.1945 45.6773 48.0825 45.943 47.8834 46.1388C47.6844 46.3347 47.4146 46.4447 47.1334 46.4447H9.80023C9.51915 46.4447 9.24959 46.3346 9.05084 46.1387C8.85208 45.9428 8.74043 45.6771 8.74043 45.4V42.6822H48.195V45.4ZM48.195 41.4268H8.74043V12.5733H48.195V41.4268ZM48.195 11.3179H8.74043V8.60005C8.74043 8.323 8.85208 8.05729 9.05084 7.86139C9.24959 7.66549 9.51915 7.55543 9.80023 7.55543H47.1334C47.4146 7.55543 47.6844 7.66543 47.8834 7.86128C48.0825 8.05713 48.1945 8.32283 48.195 8.60005V11.3179ZM15.7742 37.0522C15.9731 37.3014 16.2451 37.484 16.5533 37.5751C16.8614 37.6661 17.1905 37.6612 17.4957 37.5609C17.8008 37.4607 18.0671 37.27 18.2582 37.0149C18.4493 36.7599 18.5558 36.4529 18.5632 36.1359C18.9499 31.5762 20.6437 29.115 21.2517 29.115C21.8597 29.115 23.5517 31.5762 23.9384 36.1341C23.9582 36.4679 24.0804 36.788 24.289 37.0518C24.4975 37.3156 24.7825 37.5107 25.1061 37.6112C26.9989 37.9539 27.5846 35.5495 28.4529 34.2079C29.2988 35.5311 29.7785 37.4902 31.4408 37.668C31.8442 37.645 32.2247 37.4758 32.5092 37.193C32.7937 36.9102 32.9622 36.5337 32.9821 36.1359C33.3689 31.5762 35.0627 29.115 35.6707 29.115C36.2787 29.115 37.9707 31.5762 38.3574 36.1341C38.3756 36.5395 38.5489 36.9232 38.8425 37.2078C39.136 37.4924 39.5281 37.6568 39.9397 37.668C40.1769 37.6658 40.4102 37.6085 40.6208 37.5009C40.8314 37.3933 41.0134 37.2383 41.152 37.0486C43.8018 33.1406 45.3425 28.6049 45.6143 23.912C46.107 17.571 40.9456 14.0321 35.799 18.1391C33.9397 16.7463 31.0801 15.4506 28.5068 17.1256C26.4039 15.4231 22.5774 17.0267 21.38 18.1428C19.0261 16.2386 15.1867 15.3938 12.9016 18.1116C9.02676 23.0415 12.9871 33.2678 15.7742 37.0522ZM37.0726 20.9852C37.1848 21.1011 37.3376 21.1704 37.4999 21.179C37.6621 21.1876 37.8216 21.1348 37.9457 21.0314C38.0698 20.9281 38.1492 20.7819 38.1677 20.6227C38.1861 20.4636 38.1423 20.3035 38.045 20.1752C37.6637 19.7445 37.2551 19.3381 36.8216 18.9583C38.2886 17.7469 41.4996 16.7591 43.0801 18.9418C44.075 20.3691 44.5267 22.0969 44.3555 23.8204C44.1053 28.2744 42.6513 32.5815 40.1442 36.2953C39.9434 36.5519 39.6738 36.3705 39.6366 36.0314C39.248 31.4498 37.5096 27.8614 35.6819 27.8614C33.8542 27.8614 32.1138 31.4516 31.7234 36.0333C31.3999 37.6075 29.4922 33.3942 29.1538 32.6795C30.6413 28.2701 32.8334 22.3597 29.5145 18.0181C32.9394 16.2661 37.0299 20.9357 37.0726 20.9852ZM13.8312 18.9693C16.8731 15.3369 21.9434 20.0561 22.6406 20.9852C22.7528 21.1011 22.9056 21.1704 23.0679 21.179C23.2302 21.1876 23.3896 21.1348 23.5137 21.0314C23.6379 20.9281 23.7172 20.7819 23.7357 20.6227C23.7542 20.4636 23.7103 20.3035 23.6131 20.1752C23.2326 19.7449 22.8239 19.3396 22.3896 18.962C26.5526 15.8098 30.2731 18.5863 29.9236 23.8204C29.4587 28.5853 28.0643 33.7681 25.4612 36.4071C25.3854 36.3771 25.3207 36.3251 25.2756 36.258C25.2304 36.1909 25.207 36.1119 25.2084 36.0314C24.8198 31.4498 23.0832 27.8614 21.2536 27.8614C19.424 27.8614 17.693 31.4516 17.2988 36.0333C17.2985 36.112 17.2745 36.1889 17.2298 36.2541C17.1851 36.3194 17.1218 36.3701 17.0478 36.3998C14.3091 33.8689 10.6146 22.9224 13.8368 18.962L13.8312 18.9693ZM14.6884 25.774C14.4597 24.0073 14.1454 21.9071 15.7463 20.5857C16.425 19.9938 18.8811 19.5356 18.7212 20.9284C18.3493 21.8722 17.2672 20.8496 16.49 21.6028C15.4972 22.4147 15.7668 24.3518 15.9322 25.5632C15.9606 25.7273 15.9217 25.8957 15.824 26.0315C15.7264 26.1672 15.5781 26.2592 15.4116 26.2871C15.2452 26.3151 15.0743 26.2767 14.9366 26.1805C14.7989 26.0843 14.7056 25.938 14.6772 25.774H14.6884Z" fill="#FAFAFA"/>
</g>
</svg>
