<svg width="45" height="41" viewBox="0 0 45 41" fill="none" xmlns="http://www.w3.org/2000/svg">
<g id="Layer 1">
<path id="tooth extraction" d="M16.0089 34.9223C18.0319 16.1645 27.1784 16.155 29.2053 34.9223C29.2197 35.0928 29.1637 35.2619 29.0495 35.3923C28.9353 35.5228 28.7724 35.6039 28.5964 35.6179C28.4205 35.6319 28.2461 35.5776 28.1114 35.467C27.9768 35.3563 27.8931 35.1984 27.8786 35.0279C27.1648 26.6226 24.0213 22.0363 22.6071 22.0363C21.1929 22.0363 18.0494 26.6226 17.3355 35.0317C17.3284 35.1161 17.3041 35.1983 17.2642 35.2736C17.2243 35.349 17.1694 35.416 17.1027 35.4707C17.0361 35.5255 16.959 35.5671 16.8757 35.593C16.7925 35.6189 16.7049 35.6286 16.6178 35.6217C16.5306 35.6148 16.4458 35.5913 16.3681 35.5526C16.2903 35.5139 16.2212 35.4607 16.1647 35.3961C16.1081 35.3315 16.0653 35.2568 16.0385 35.1761C16.0118 35.0955 16.0017 35.0105 16.0089 34.9261V34.9223ZM12.5094 6.79778C13.0161 6.40912 13.6143 6.14833 14.2505 6.03878C14.8867 5.92923 15.541 5.97434 16.1548 6.17007C16.2386 6.19482 16.3266 6.20334 16.4138 6.19514C16.5009 6.18694 16.5856 6.16218 16.6629 6.12227C16.7402 6.08236 16.8087 6.02808 16.8643 5.96254C16.92 5.897 16.9618 5.82148 16.9873 5.74028C17.0129 5.65909 17.0217 5.57381 17.0132 5.48932C17.0048 5.40484 16.9792 5.32279 16.938 5.24787C16.8968 5.17296 16.8408 5.10663 16.7732 5.05269C16.7056 4.99875 16.6276 4.95824 16.5438 4.93349C15.7325 4.67971 14.8693 4.62227 14.0297 4.76619C13.1902 4.91011 12.3998 5.25102 11.7275 5.75913C8.6151 8.38309 9.33484 12.6244 9.76473 16.0947C9.79414 16.2635 9.89151 16.414 10.0354 16.5131C10.1793 16.6123 10.358 16.652 10.5321 16.6235C10.7062 16.595 10.8615 16.5006 10.9639 16.3612C11.0662 16.2217 11.1072 16.0486 11.0778 15.8798C10.7023 12.9524 10.0079 8.93163 12.5094 6.79778ZM9.63634 30.3719C9.71408 30.519 9.84702 30.6317 10.0078 30.6868C10.1687 30.7419 10.3451 30.7352 10.501 30.6682C10.6569 30.6011 10.7804 30.4787 10.846 30.3261C10.9117 30.1735 10.9146 30.0024 10.8541 29.8479C7.6775 22.5057 1.46252 2.62811 14.6725 1.42923C20.1386 1.53856 25.3985 7.58761 25.451 7.64981C25.9879 8.30392 27.0422 7.46131 26.4742 6.82417C25.6756 5.92885 24.811 5.09095 23.8871 4.31709C32.0336 -2.12593 39.2057 3.14083 38.5715 13.0711C38.1518 18.853 36.7287 24.5248 34.3621 29.8479C34.3266 29.9253 34.3072 30.0088 34.305 30.0936C34.3027 30.1783 34.3178 30.2627 34.3492 30.3418C34.3806 30.4209 34.4279 30.4933 34.4881 30.5547C34.5484 30.6162 34.6206 30.6655 34.7005 30.6999C34.7805 30.7343 34.8667 30.7531 34.9541 30.7553C35.0416 30.7574 35.1286 30.7428 35.2103 30.7124C35.2919 30.6819 35.3666 30.6362 35.43 30.5777C35.4934 30.5193 35.5443 30.4494 35.5798 30.3719C38.6007 22.9298 42.7771 10.6281 37.2079 3.17476C33.0685 -2.10331 25.9256 0.761931 22.8386 3.47825C18.8061 0.104057 12.0387 -1.6509 8.0257 3.15026C2.33787 10.2248 6.69711 23.2069 9.63634 30.3719ZM43.6778 29.0957C38.9778 29.8513 34.611 31.9301 31.1213 35.0732C27.9 37.9007 24.9161 39.4087 22.4904 39.4087C20.0647 39.4087 17.0827 37.9007 13.8614 35.0732C10.472 32.024 6.25611 29.9741 1.70761 29.1636C1.2641 29.0335 0.616344 29.0524 0.54048 29.6217C0.464617 30.1909 0.995663 30.4039 1.49169 30.436C5.78813 31.2064 9.76913 33.147 12.9685 36.0307C16.4894 39.1278 19.6931 40.7 22.5001 40.7C25.3071 40.7 28.507 39.1278 32.0317 36.0307C35.2309 33.1468 39.212 31.2061 43.5085 30.436L43.9092 30.3606C44.069 30.3185 44.2068 30.2201 44.2958 30.0848C44.3847 29.9494 44.4184 29.7868 44.3901 29.6287C44.3619 29.4706 44.2739 29.3284 44.1432 29.2298C44.0126 29.1312 43.8487 29.0834 43.6836 29.0957H43.6778Z" fill="#FAFAFA"/>
</g>
</svg>
