<svg width="38" height="41" viewBox="0 0 38 41" fill="none" xmlns="http://www.w3.org/2000/svg">
<g id="Layer 2">
<g id="Layer 1">
<path id="dental cleaning" d="M33.9893 26.8403V38.4253C33.9893 38.6961 34.0892 38.9559 34.2669 39.1474C34.4447 39.3389 34.6857 39.4465 34.937 39.4465C35.6869 39.4949 36.6113 39.4752 36.6462 38.4253V23.7103C36.6462 23.5478 36.7061 23.3919 36.8128 23.277C36.9194 23.1621 37.064 23.0975 37.2148 23.0975C37.3657 23.0975 37.5103 23.1621 37.6169 23.277C37.7236 23.3919 37.7835 23.5478 37.7835 23.7103V38.4253C37.7469 40.1453 36.3769 40.8494 34.937 40.6738C34.3838 40.6733 33.8533 40.4363 33.4621 40.0147C33.0709 39.5931 32.8509 39.0215 32.8505 38.4253V26.8403C32.8527 24.6737 33.5585 22.5762 34.8456 20.9117C35.9973 19.6352 36.6436 17.9262 36.6479 16.1458H31.9028C31.757 16.1373 31.6199 16.069 31.5195 15.9548C31.4192 15.8407 31.3633 15.6894 31.3633 15.5322C31.3633 15.3749 31.4192 15.2237 31.5195 15.1095C31.6199 14.9954 31.757 14.927 31.9028 14.9185H36.6462V12.8742H31.9028C31.7519 12.8742 31.6073 12.8097 31.5007 12.6948C31.394 12.5798 31.3341 12.424 31.3341 12.2615C31.3341 12.099 31.394 11.9431 31.5007 11.8282C31.6073 11.7133 31.7519 11.6487 31.9028 11.6487H36.6462V9.60443H31.9028C31.757 9.59595 31.6199 9.52759 31.5195 9.41344C31.4192 9.29929 31.3633 9.14803 31.3633 8.99079C31.3633 8.83354 31.4192 8.68228 31.5195 8.56813C31.6199 8.45398 31.757 8.38563 31.9028 8.37714H36.6462V6.33284H31.9028C31.7519 6.33284 31.6073 6.26828 31.5007 6.15337C31.394 6.03846 31.3341 5.8826 31.3341 5.72009C31.3341 5.55758 31.394 5.40172 31.5007 5.28681C31.6073 5.1719 31.7519 5.10734 31.9028 5.10734H36.6462V3.06125H31.9028C31.7519 3.06125 31.6073 2.99669 31.5007 2.88178C31.394 2.76687 31.3341 2.61101 31.3341 2.4485C31.3341 2.28599 31.394 2.13013 31.5007 2.01522C31.6073 1.9003 31.7519 1.83575 31.9028 1.83575H36.6462V0.812703C36.6462 0.650191 36.7061 0.494335 36.8128 0.379422C36.9194 0.264509 37.064 0.199951 37.2148 0.199951C37.3657 0.199951 37.5103 0.264509 37.6169 0.379422C37.7236 0.494335 37.7835 0.650191 37.7835 0.812703V16.2085C37.766 18.2539 37.0279 20.2156 35.7185 21.6964C34.6023 23.1408 33.9905 24.9607 33.9893 26.8403ZM27.816 10.9769C33.5305 18.2582 27.5517 34.3546 23.3369 39.855C23.0773 40.1852 22.7322 40.4245 22.3458 40.5424C21.9593 40.6603 21.549 40.6513 21.1673 40.5167C20.7856 40.3821 20.4498 40.1279 20.2028 39.7867C19.9558 39.4454 19.8088 39.0326 19.7805 38.6008C19.1571 31.255 16.4769 27.4029 15.215 27.4029C13.953 27.4029 11.2729 31.2586 10.6477 38.6134C10.6146 39.055 10.4601 39.476 10.204 39.8226C9.94781 40.1692 9.60161 40.4256 9.20957 40.5591C8.83219 40.6856 8.42815 40.6862 8.05045 40.5609C7.67274 40.4356 7.33901 40.1901 7.09304 39.8568C3.07863 33.9761 0.710312 26.98 0.267961 19.6951C-0.523449 9.29268 8.01746 5.1378 15.4178 11.2599C16.9757 10.0273 23.2538 5.64126 27.816 10.9769ZM16.3688 12.0232C17.1353 12.672 17.8576 13.3791 18.5303 14.1392C19.0423 14.7107 18.1828 15.5725 17.6989 14.9705C17.6873 14.9257 12.9172 9.54173 8.22197 9.58293C-4.52539 10.7708 3.54167 33.6576 7.97257 39.0792C8.08572 39.2269 8.2381 39.3338 8.40925 39.3856C8.58041 39.4373 8.76214 39.4314 8.93008 39.3686C9.09801 39.3058 9.2441 39.1891 9.34874 39.0343C9.45339 38.8794 9.51157 38.6938 9.51549 38.5023C10.139 31.1349 12.9654 26.1863 15.2116 26.1863C17.4579 26.1863 20.286 31.1332 20.9095 38.4987C20.9212 38.6988 20.9888 38.8903 21.1033 39.0483C21.2178 39.2062 21.3739 39.3232 21.5512 39.3838C21.7127 39.4393 21.8861 39.4397 22.0477 39.3848C22.2093 39.33 22.3513 39.2226 22.454 39.0774C26.3233 33.3912 28.6031 26.6313 29.0247 19.5948C29.4587 9.46468 22.0783 7.3093 16.3655 12.0232H16.3688ZM9.76488 13.3992C9.14068 13.2092 8.4839 13.1793 7.84705 13.3119C7.21021 13.4444 6.61099 13.7357 6.09733 14.1625C5.58366 14.5893 5.16981 15.1397 4.88887 15.7697C4.60793 16.3997 4.4677 17.0917 4.47939 17.7906C4.42051 19.1057 4.5042 20.4237 4.72879 21.7179C4.75657 21.8778 4.84215 22.0193 4.96672 22.1112C5.0284 22.1567 5.09779 22.1886 5.17093 22.2052C5.24407 22.2219 5.31954 22.2228 5.39301 22.2079C5.46648 22.1931 5.53652 22.1628 5.59913 22.1189C5.66175 22.0749 5.71571 22.018 5.75794 21.9515C5.80016 21.8851 5.82982 21.8103 5.84523 21.7315C5.86064 21.6527 5.86149 21.5713 5.84774 21.4922C5.22591 18.4463 5.42875 13.5945 9.46561 14.5853C9.61157 14.6276 9.76713 14.6056 9.89809 14.5243C10.029 14.443 10.1247 14.309 10.1639 14.1517C10.2032 13.9944 10.1828 13.8268 10.1074 13.6856C10.0319 13.5445 9.90751 13.4415 9.76156 13.3992H9.76488Z" fill="#FAFAFA"/>
</g>
</g>
</svg>
