<svg width="40" height="42" viewBox="0 0 40 42" fill="none" xmlns="http://www.w3.org/2000/svg">
<g id="Layer 1">
<path id="dental prosthetics" d="M13.1944 6.87678C8.54035 5.62166 6.33852 9.9577 6.82551 14.3194C6.83193 14.4859 6.77585 14.6482 6.66962 14.7707C6.5634 14.8932 6.41572 14.9659 6.25908 14.9727C6.18152 14.976 6.1041 14.9632 6.03123 14.9347C5.95836 14.9063 5.89147 14.8629 5.83438 14.807C5.71908 14.6942 5.65071 14.5372 5.6443 14.3708C5.04505 9.2916 8.02745 4.13901 13.5018 5.66387C13.6532 5.70718 13.7822 5.81261 13.8604 5.95697C13.9386 6.10133 13.9596 6.27279 13.9189 6.43364C13.8781 6.59448 13.7789 6.73153 13.643 6.81463C13.5072 6.89774 13.3458 6.9201 13.1944 6.87678ZM39.6388 17.3948C39.4947 18.5562 38.9593 19.6226 38.1318 20.3966C37.3044 21.1706 36.2409 21.5997 35.1385 21.6042H32.6362L30.8764 25.3714H32.27C32.4214 25.3801 32.5638 25.4501 32.6681 25.567C32.7723 25.684 32.8304 25.8389 32.8304 25.9999C32.8304 26.161 32.7723 26.3159 32.6681 26.4328C32.5638 26.5497 32.4214 26.6197 32.27 26.6284H30.291L28.5312 30.3938H30.2996C30.451 30.4024 30.5934 30.4725 30.6976 30.5894C30.8019 30.7063 30.86 30.8612 30.86 31.0222C30.86 31.1833 30.8019 31.3382 30.6976 31.4551C30.5934 31.572 30.451 31.642 30.2996 31.6507H27.9441L26.1844 35.4216H28.3292C28.4858 35.4216 28.6361 35.4877 28.7468 35.6054C28.8576 35.7231 28.9198 35.8827 28.9198 36.0491C28.9198 36.2156 28.8576 36.3752 28.7468 36.4929C28.6361 36.6106 28.4858 36.6767 28.3292 36.6767H25.5972L24.5023 39.0181C24.1299 39.8229 23.5526 40.5008 22.8361 40.9748C22.1196 41.4488 21.2924 41.7001 20.4484 41.7001C19.6043 41.7001 18.7771 41.4488 18.0606 40.9748C17.3441 40.5008 16.7669 39.8229 16.3944 39.0181L15.3013 36.6767H12.5693C12.4126 36.6767 12.2624 36.6106 12.1516 36.4929C12.0409 36.3752 11.9787 36.2156 11.9787 36.0491C11.9787 35.8827 12.0409 35.7231 12.1516 35.6054C12.2624 35.4877 12.4126 35.4216 12.5693 35.4216H14.7141L12.9544 31.6525H10.604C10.4527 31.6439 10.3102 31.5738 10.206 31.4569C10.1018 31.34 10.0437 31.1851 10.0437 31.0241C10.0437 30.863 10.1018 30.7081 10.206 30.5912C10.3102 30.4743 10.4527 30.4043 10.604 30.3956H12.3672L10.604 26.6284H8.62842C8.47708 26.6197 8.33464 26.5497 8.2304 26.4328C8.12616 26.3159 8.06806 26.161 8.06806 25.9999C8.06806 25.8389 8.12616 25.684 8.2304 25.567C8.33464 25.4501 8.47708 25.3801 8.62842 25.3714H10.0221L8.26232 21.6042H5.76864C4.66579 21.601 3.6015 21.1727 2.77325 20.399C1.945 19.6252 1.40904 18.5585 1.26481 17.3967C1.15429 16.5085 1.06622 15.6149 0.998866 14.7378C-0.0217469 1.33517 11.1221 -3.86513 20.7238 4.04359C22.5768 2.57561 30.8833 -3.32198 36.8671 3.58852C39.9825 7.32635 40.321 12.8826 39.6388 17.3948ZM24.2778 36.6767H16.6206L17.4547 38.4621C17.7339 39.0517 18.1617 39.5473 18.6904 39.8936C19.2192 40.24 19.8281 40.4233 20.4492 40.4233C21.0704 40.4233 21.6793 40.24 22.208 39.8936C22.7368 39.5473 23.1646 39.0517 23.4437 38.4621L24.2778 36.6767ZM26.6247 31.6525H14.2737L16.0352 35.4216H24.8633L26.6247 31.6525ZM28.9716 26.6284H11.9269L13.6883 30.3938H27.2101L28.9716 26.6284ZM31.3168 21.6042H9.58169L11.3414 25.3714H29.557L31.3168 21.6042ZM21.7133 4.82896C22.7718 5.69724 23.7671 6.64924 24.6906 7.67683C25.2225 8.26585 24.3314 9.1448 23.8271 8.52826C23.7632 8.46036 17.7639 1.64895 11.4761 1.50766C3.68596 1.38288 1.08867 10.1907 2.43567 17.2334C2.54106 18.0936 2.93665 18.8839 3.54899 19.4576C4.16133 20.0313 4.94881 20.3494 5.76518 20.3528H35.1385C38.183 20.2959 38.6459 17.2444 38.7253 14.6424C39.2434 0.977355 29.2341 -1.25764 21.7133 4.82896Z" fill="#FAFAFA"/>
</g>
</svg>
