<svg width="42" height="42" viewBox="0 0 42 42" fill="none" xmlns="http://www.w3.org/2000/svg">
<g id="Layer 1">
<path id="anesthesia" d="M40.9583 10.3364H38.2497V1.55368H40.9583C41.124 1.55368 41.2829 1.48764 41.4 1.37009C41.5172 1.25254 41.583 1.09311 41.583 0.926864C41.583 0.760622 41.5172 0.601189 41.4 0.483639C41.2829 0.366088 41.124 0.300049 40.9583 0.300049L34.29 0.300049C34.1243 0.300049 33.9654 0.366088 33.8483 0.483639C33.7311 0.601189 33.6653 0.760622 33.6653 0.926864C33.6653 1.09311 33.7311 1.25254 33.8483 1.37009C33.9654 1.48764 34.1243 1.55368 34.29 1.55368H36.9986V10.3364H34.29C34.1241 10.3369 33.9652 10.4033 33.8482 10.5212C33.7311 10.639 33.6653 10.7987 33.6653 10.9651V26.0196C33.6658 26.6289 33.9069 27.2131 34.3359 27.6442C34.7649 28.0754 35.3467 28.3183 35.9539 28.3198H36.9949V31.397C34.5485 31.3142 32.1002 31.4862 29.6891 31.9102C31.185 26.4613 33.2087 19.4784 29.3549 14.4437C26.1038 10.2723 20.2775 12.4588 17.799 14.627C14.5534 11.9566 9.14344 10.615 5.89967 14.4235C1.8961 19.4912 4.11888 26.4925 5.56725 31.9762C4.05761 31.698 2.53292 31.5095 1.00114 31.4117C0.835713 31.4003 0.672543 31.4553 0.547521 31.5646C0.422499 31.6739 0.345868 31.8285 0.334484 31.9945C0.323101 32.1605 0.377898 32.3243 0.486821 32.4497C0.595744 32.5752 0.74987 32.6521 0.915294 32.6635C2.6329 32.7681 4.34148 32.9891 6.02935 33.3251C6.96654 36.0501 8.31159 38.6161 10.0183 40.9349C10.2448 41.2453 10.5612 41.4781 10.9243 41.6014C11.2875 41.7247 11.6797 41.7326 12.0475 41.624C12.4469 41.4982 12.7989 41.2537 13.0569 40.9229C13.3149 40.592 13.4667 40.1904 13.4922 39.771C13.6079 38.371 13.8339 36.9823 14.168 35.6179C16.4394 36.122 18.7932 36.122 21.0647 35.6179C21.3989 36.9816 21.6248 38.3697 21.7404 39.7692C21.7654 40.1889 21.9169 40.5911 22.175 40.9224C22.433 41.2537 22.7853 41.4984 23.1852 41.624C23.5534 41.732 23.9459 41.7237 24.3093 41.6C24.6727 41.4764 24.9893 41.2435 25.2162 40.933C26.933 38.6049 28.2862 36.0277 29.2289 33.2903C31.7849 32.773 34.3929 32.5608 36.9986 32.658V41.0797C37.0072 41.2403 37.0769 41.3915 37.1933 41.5021C37.3096 41.6127 37.4638 41.6744 37.6241 41.6744C37.7844 41.6744 37.9386 41.6127 38.055 41.5021C38.1714 41.3915 38.241 41.2403 38.2497 41.0797V32.6525C39.7017 32.6525 40.9273 32.6635 40.9528 32.6635C41.1181 32.6635 41.2767 32.5984 41.3946 32.4822C41.5124 32.366 41.5801 32.208 41.583 32.0422C41.5839 31.9598 41.5686 31.878 41.538 31.8016C41.5074 31.7252 41.462 31.6556 41.4044 31.5968C41.3469 31.538 41.2783 31.4913 41.2027 31.4592C41.1271 31.4271 41.0459 31.4103 40.9638 31.4099C40.8615 31.4099 39.6634 31.3989 38.2497 31.397V28.3198H39.2908C39.8985 28.3193 40.4813 28.0768 40.9111 27.6455C41.3408 27.2143 41.5825 26.6295 41.583 26.0196V10.9651C41.583 10.7987 41.5172 10.639 41.4001 10.5212C41.283 10.4033 41.1241 10.3369 40.9583 10.3364ZM12.2521 39.6611C11.3808 42.8813 8.01652 35.0003 7.48868 33.6697C9.37357 34.0986 11.1617 34.8775 12.968 35.3192C12.6169 36.7462 12.3776 38.1985 12.2521 39.6629V39.6611ZM17.62 34.74C16.5764 34.7272 15.5365 34.6124 14.515 34.3973C16.7835 28.0192 18.4675 28.0192 20.7359 34.3973C19.7109 34.6135 18.6673 34.7289 17.62 34.7419V34.74ZM24.2335 40.1633C23.7094 40.7479 23.0865 40.374 22.9897 39.6593C22.8674 38.1957 22.631 36.7439 22.2829 35.3174C24.0582 34.8867 25.9632 34.0729 27.7622 33.6349C26.8983 35.9675 25.7103 38.166 24.2335 40.1651V40.1633ZM28.2919 32.1998C26.1951 32.6415 24.018 33.5909 21.9468 34.1059C19.6364 26.4778 15.6072 26.4815 13.2968 34.1059C11.1964 33.5762 9.19641 32.6965 6.96997 32.2584C5.00106 26.4412 2.14997 13.9159 11.2786 13.2652C15.6145 13.355 19.7916 18.1111 19.8336 18.1606C19.9426 18.286 20.0968 18.3628 20.2622 18.3742C20.4277 18.3855 20.5908 18.3305 20.7158 18.2211C20.8408 18.1117 20.9173 17.957 20.9286 17.791C20.94 17.625 20.8851 17.4613 20.7761 17.3358C20.1685 16.6583 19.5142 16.0244 18.8181 15.4389C21.0099 13.6244 25.8043 11.8558 28.4161 15.2556C32.0014 20.1254 29.7531 27.0368 28.2919 32.2016V32.1998ZM34.9164 11.5919H36.9986V17.0298H34.9164V11.5919ZM40.3373 26.0196C40.3368 26.2969 40.2267 26.5626 40.0312 26.7584C39.8357 26.9543 39.5707 27.0643 39.2944 27.0643H35.9539C35.6777 27.0643 35.4129 26.9542 35.2177 26.7583C35.0225 26.5624 34.9128 26.2967 34.9128 26.0196V18.2834H40.3373V26.0196ZM40.3373 17.0389H38.2497V11.5919H40.3373V17.0389ZM12.1388 17.7482C11.711 17.6374 11.2629 17.6316 10.8324 17.7312C10.4019 17.8309 10.0016 18.033 9.66541 18.3206C9.32919 18.6082 9.06689 18.9728 8.90069 19.3836C8.7345 19.7944 8.66929 20.2393 8.71057 20.6807C8.6603 21.7927 8.73135 22.907 8.92244 24.0035C8.95102 24.1674 8.91358 24.3358 8.81836 24.472C8.72313 24.6081 8.57793 24.7007 8.41469 24.7293C8.25144 24.758 8.08353 24.7204 7.94789 24.6249C7.81225 24.5293 7.71999 24.3836 7.69141 24.2198C6.90604 20.7082 7.62566 15.4114 12.4785 16.5422C12.6342 16.5907 12.7648 16.6982 12.8425 16.8419C12.9203 16.9856 12.939 17.1541 12.8946 17.3115C12.8503 17.4688 12.7465 17.6025 12.6053 17.6841C12.4641 17.7657 12.2967 17.7887 12.1388 17.7482Z" fill="#FAFAFA"/>
</g>
</svg>
