<svg width="967" height="1197" xmlns="http://www.w3.org/2000/svg">
 <g id="Layer_1">
  <title>Layer 1</title>
  <g id="svg_15">
   <g>
    <path fill="black" d="m100.94498,1192.11388c0.198,-0.192 0.204,-0.508 0.012,-0.707l-3.1294,-3.234c-0.192,-0.198 -0.5086,-0.203 -0.707,-0.011c-0.1985,0.192 -0.2037,0.508 -0.0117,0.707l2.7814,2.874l-2.8748,2.782c-0.1984,0.192 -0.2037,0.508 -0.0117,0.707c0.1921,0.198 0.5086,0.203 0.7071,0.011l3.2341,-3.129zm619.36,-735.76466c-102.844,74.10296 -176.893,104.64566 -229.146,112.19966c-52.234,7.551 -82.663,-7.869 -98.374,-25.6872c-7.866,-8.9206 -12.053,-18.452 -13.449,-26.0362c-0.698,-3.795 -0.693,-7.0779 -0.121,-9.543c0.577,-2.4804 1.698,-4.029 3.143,-4.5668c1.437,-0.5352 3.413,-0.1487 5.89,1.7529c2.469,1.8944 5.344,5.229 8.508,10.3603c6.326,10.2573 13.741,27.5824 21.36,54.562l0.962,-0.272c-7.631,-27.0204 -15.075,-44.4453 -21.47,-54.8149c-3.196,-5.1823 -6.147,-8.6303 -8.751,-10.6287c-2.594,-1.9913 -4.939,-2.6077 -6.848,-1.8968c-1.903,0.7083 -3.158,2.6547 -3.768,5.2777c-0.613,2.6381 -0.603,6.0667 0.112,9.9503c1.43,7.7733 5.704,17.4684 13.682,26.5166c15.976,18.1188 46.766,33.6048 99.267,26.0158c52.48,-7.587 126.682,-38.2313 229.588,-112.37834l-0.585,-0.81132zm-302.189,113.04166c7.598,26.905 5.923,49.807 -2.642,69.18c-8.569,19.381 -24.055,35.28 -44.162,48.13c-40.226,25.708 -98.849,39.152 -157.13,43.868c-58.273,4.716 -116.1252,0.7 -154.7666,-8.449c-19.3432,-4.58 -33.7832,-10.427 -41.0822,-17.043c-3.6393,-3.299 -5.4398,-6.73 -5.2804,-10.242c0.1598,-3.522 2.2957,-7.275 6.8698,-11.201l-0.6512,-0.758c-4.6759,4.012 -7.04,8.001 -7.2176,11.914c-0.1779,3.922 1.8468,7.619 5.6078,11.028c7.5019,6.8 22.1634,12.691 41.5234,17.275c38.7647,9.179 96.725,13.195 155.077,8.473c58.344,-4.721 117.159,-18.184 157.589,-44.023c20.221,-12.923 35.868,-28.958 44.537,-48.567c8.673,-19.617 10.342,-42.762 2.69,-69.857l-0.962,0.272zm-398.1934,114.243c2.2924,-1.967 4.2902,-3.3 6.017,-4.059c1.7265,-0.76 3.1449,-0.929 4.3075,-0.628c2.3031,0.596 3.9478,3.155 4.8908,7.88c0.933,4.676 1.131,11.249 0.7467,19.452c-0.3839,8.195 -1.347,17.987 -2.7214,29.086c-2.7487,22.202 -7.1376,49.601 -11.8104,79.878c-4.672,30.273 -9.6263,63.413 -13.50246,97.08c-7.75052,67.317 -11.1984,136.796 0.57129,189.681c5.88567,26.446 15.58617,48.789 30.49897,64.635c14.9268,15.86 35.0425,25.176 61.6684,25.616l0.017,-1c-26.3746,-0.435 -46.2276,-9.651 -60.9572,-25.302c-14.7434,-15.666 -24.3866,-37.815 -30.25105,-64.166c-11.73039,-52.709 -8.30336,-122.042 -0.55397,-189.35c3.87382,-33.646 8.82562,-66.771 13.49732,-97.041c4.671,-30.266 9.0634,-57.687 11.8146,-79.908c1.3757,-11.111 2.3422,-20.931 2.7278,-29.162c0.3853,-8.225 0.1926,-14.896 -0.765,-19.694c-0.9476,-4.749 -2.6935,-7.896 -5.6209,-8.653c-1.4526,-0.376 -3.1094,-0.134 -4.9605,0.68c-1.8508,0.814 -3.9331,2.215 -6.2657,4.217l0.6512,0.758z"/>
   </g>
   <g stroke="null">
    <path stroke="black" d="m586.11858,0.61697c21,110 528,193.5 337,305"/>
   </g>
  </g>
 </g>

</svg>