<svg width="967" height="1197" xmlns="http://www.w3.org/2000/svg">
 <g id="Layer_1">
  <title>Layer 1</title>
  <path fill="none" stroke="#000000" opacity="NaN" d="m585.67497,0.67134" id="svg_21"/>
  <path id="svg_6" d="m720.5,457.5c-92,67 -253,156 -314,99c-61,-57 -17,-72 -4,-35c13,37 56,131 -49,176c-105,45 -214,37 -255,31c-41,-6 -77,-13 -81,-22c-4,-9 -7,-13 3,-25c10,-12 21,-1 18,24c-3,25 -45,387.5 -18,434c27,46.5 63,49 79,50" opacity="NaN" stroke="#000" fill="none"/>
  <path id="svg_7" d="m590.18438,0.91531c3.33333,25.55556 38.8889,54.44445 80.00001,74.44446c41.11112,20 414.44452,126.66669 257.77782,231.11115" opacity="NaN" stroke="#000" fill="none"/>
  <path stroke="#000" id="svg_8" d="m99.34385,1189.44597l-4.1716,-3.5859" opacity="NaN" fill="none"/>
  <path id="svg_9" d="m99.31153,1189.27356l-4.07462,3.52257" opacity="NaN" stroke="#000" fill="none"/>
 </g>

</svg>