<svg width="600" height="600" xmlns="http://www.w3.org/2000/svg" fill="#2A2929">
 <g id="Layer_1">
  <title>Layer 1</title>
  <path transform="rotate(-45 299.492 299.994)" d="m473.16939,248.61596c-3.8945,-3.9023 -9.7539,-5.0703 -14.844,-2.9609c-5.0898,2.1094 -8.4062,7.082 -8.3984,12.59l0,172.88l-304.53,-304.36c-5.3203,-5.3633 -13.98,-5.4023 -19.348,-0.08203c-5.3672,5.3203 -5.4023,13.98 -0.08594,19.348l304.14,303.97l-172.14,0c-7.1914,0.46094 -12.789,6.4297 -12.789,13.637s5.5977,13.172 12.789,13.633l205.02,0c1.8047,0.01172 3.5938,-0.32812 5.2656,-1.0078c1.5586,-0.69922 2.9961,-1.6445 4.2578,-2.7969l0.28125,0l-0.0039,0c2.6875,-2.5547 4.207,-6.0977 4.1992,-9.8008l0,-205.41c0.05078,-3.5859 -1.3164,-7.0469 -3.8047,-9.6289l-0.00891,-0.01067z" id="svg_4"/>
 </g>

</svg>