<svg width="1000" height="1000" fill="#F4F4F4" xmlns="http://www.w3.org/2000/svg">
 <g id="Layer_1">
  <title>Layer 1</title>
  <g id="svg_6">
   <path transform="rotate(45 264 400.017)" id="svg_2" d="m437.67726,348.63802c-3.8945,-3.9023 -9.7539,-5.0703 -14.844,-2.9609c-5.0898,2.1094 -8.4062,7.082 -8.3984,12.59l0,172.88l-304.53,-304.36c-5.3203,-5.3633 -13.98,-5.4023 -19.348,-0.08203c-5.3672,5.3203 -5.4023,13.98 -0.08594,19.348l304.14,303.97l-172.14,0c-7.1914,0.46094 -12.789,6.4297 -12.789,13.637s5.5977,13.172 12.789,13.633l205.02,0c1.8047,0.01172 3.5938,-0.32812 5.2656,-1.0078c1.5586,-0.69922 2.9961,-1.6445 4.2578,-2.7969l0.28125,0l-0.0039,0c2.6875,-2.5547 4.207,-6.0977 4.1992,-9.8008l0,-205.41c0.05078,-3.5859 -1.3164,-7.0469 -3.8047,-9.6289l-0.00891,-0.01067z"/>
   <path transform="rotate(45 736 399.983)" id="svg_3" d="m909.67694,348.60365c-3.8945,-3.9023 -9.7539,-5.0703 -14.844,-2.9609c-5.0898,2.1094 -8.4062,7.082 -8.3984,12.59l0,172.88l-304.53,-304.36c-5.3203,-5.3633 -13.98,-5.4023 -19.348,-0.08203c-5.3672,5.3203 -5.4023,13.98 -0.08594,19.348l304.14,303.97l-172.14,0c-7.1914,0.46094 -12.789,6.4297 -12.789,13.637s5.5977,13.172 12.789,13.633l205.02,0c1.8047,0.01172 3.5938,-0.32812 5.2656,-1.0078c1.5586,-0.69922 2.9961,-1.6445 4.2578,-2.7969l0.28125,0l-0.0039,0c2.6875,-2.5547 4.207,-6.0977 4.1992,-9.8008l0,-205.41c0.05078,-3.5859 -1.3164,-7.0469 -3.8047,-9.6289l-0.00891,-0.01067z"/>
   <path transform="rotate(45 500.97 600.018)" id="svg_4" d="m674.6476,548.63894c-3.8945,-3.9023 -9.7539,-5.0703 -14.844,-2.9609c-5.0898,2.1094 -8.4062,7.082 -8.3984,12.59l0,172.88l-304.53,-304.36c-5.3203,-5.3633 -13.98,-5.4023 -19.348,-0.08203c-5.3672,5.3203 -5.4023,13.98 -0.08594,19.348l304.14,303.97l-172.14,0c-7.1914,0.46094 -12.789,6.4297 -12.789,13.637s5.5977,13.172 12.789,13.633l205.02,0c1.8047,0.01172 3.5938,-0.32812 5.2656,-1.0078c1.5586,-0.69922 2.9961,-1.6445 4.2578,-2.7969l0.28125,0l-0.0039,0c2.6875,-2.5547 4.207,-6.0977 4.1992,-9.8008l0,-205.41c0.05078,-3.5859 -1.3164,-7.0469 -3.8047,-9.6289l-0.00891,-0.01067z"/>
  </g>
 </g>

</svg>