<svg width="41" height="41" viewBox="0 0 41 41" fill="none" xmlns="http://www.w3.org/2000/svg">
<g id="hours sign">
<path id="Vector" d="M20.5 4.48438C17.3324 4.48437 14.236 5.42368 11.6022 7.18349C8.96845 8.94331 6.91568 11.4446 5.7035 14.3711C4.49131 17.2976 4.17415 20.5178 4.79212 23.6245C5.41008 26.7312 6.93542 29.5849 9.17525 31.8248C11.4151 34.0646 14.2688 35.5899 17.3755 36.2079C20.4822 36.8259 23.7024 36.5087 26.6289 35.2965C29.5554 34.0843 32.0567 32.0316 33.8165 29.3978C35.5763 26.764 36.5156 23.6676 36.5156 20.5C36.5072 16.255 34.8171 12.1863 31.8154 9.18459C28.8137 6.18291 24.745 4.49284 20.5 4.48438ZM20.5 35.2344C17.5858 35.2344 14.7371 34.3702 12.314 32.7512C9.89097 31.1322 8.00243 28.831 6.88722 26.1386C5.77201 23.4462 5.48022 20.4837 6.04875 17.6255C6.61728 14.7673 8.02059 12.1419 10.0812 10.0812C12.1419 8.02058 14.7673 6.61727 17.6255 6.04874C20.4837 5.48021 23.4463 5.772 26.1386 6.88721C28.831 8.00242 31.1322 9.89096 32.7512 12.314C34.3702 14.7371 35.2344 17.5858 35.2344 20.5C35.2301 24.4065 33.6764 28.1518 30.9141 30.9141C28.1518 33.6764 24.4065 35.2301 20.5 35.2344ZM30.1094 20.5C30.1094 20.6699 30.0419 20.8328 29.9217 20.953C29.8016 21.0731 29.6387 21.1406 29.4688 21.1406H20.5C20.3301 21.1406 20.1672 21.0731 20.047 20.953C19.9269 20.8328 19.8594 20.6699 19.8594 20.5V11.5312C19.8594 11.3613 19.9269 11.1984 20.047 11.0783C20.1672 10.9581 20.3301 10.8906 20.5 10.8906C20.6699 10.8906 20.8329 10.9581 20.953 11.0783C21.0731 11.1984 21.1406 11.3613 21.1406 11.5312V19.8594H29.4688C29.6387 19.8594 29.8016 19.9269 29.9217 20.047C30.0419 20.1671 30.1094 20.3301 30.1094 20.5Z" fill="#E3AA9A"/>
</g>
</svg>
