<svg width="39" height="31" viewBox="0 0 39 31" fill="none" xmlns="http://www.w3.org/2000/svg">
<g id="map sign" clip-path="url(#clip0_172_1874)">
<g id="Group">
<path id="Vector" d="M8.78867 30.9293C8.79723 30.9351 8.80864 30.9322 8.8172 30.9381C8.88457 30.9762 8.9599 30.9975 9.03694 31C9.07937 31 9.12159 30.9941 9.1625 30.9826L19.5004 28.1093L29.8382 30.9826C29.8791 30.9941 29.9213 31 29.9638 31C30.0407 30.9977 30.1158 30.9761 30.1825 30.9371C30.1921 30.9322 30.2025 30.9342 30.2111 30.9284L38.7721 25.6002C38.8605 25.5449 38.9288 25.4617 38.9666 25.3633C39.0043 25.2649 39.0095 25.1565 38.9813 25.0548L34.2404 8.10171C34.221 8.0311 34.1861 7.96591 34.1383 7.91108C34.0906 7.85624 34.0312 7.8132 33.9646 7.7852C33.8981 7.7572 33.8262 7.74498 33.7543 7.74946C33.6825 7.75395 33.6125 7.77502 33.5499 7.81108L28.8299 10.5081C28.7265 10.5745 28.6522 10.6789 28.6223 10.7996C28.5923 10.9203 28.6091 11.0481 28.6691 11.1566C28.729 11.2651 28.8277 11.346 28.9445 11.3825C29.0614 11.419 29.1876 11.4084 29.297 11.3528L33.4909 8.95518L37.9683 24.9647L30.3443 29.7106L28.5331 14.9556C28.5175 14.828 28.4527 14.712 28.3531 14.6331C28.2535 14.5542 28.1271 14.5188 28.0019 14.5347C27.8766 14.5506 27.7627 14.6166 27.6852 14.718C27.6077 14.8195 27.5729 14.9482 27.5886 15.0757L29.4025 29.8579L19.976 27.2374V24.5927C19.976 24.4643 19.9259 24.3411 19.8367 24.2502C19.7475 24.1594 19.6265 24.1084 19.5004 24.1084C19.3742 24.1084 19.2532 24.1594 19.164 24.2502C19.0748 24.3411 19.0247 24.4643 19.0247 24.5927V27.2374L9.5972 29.8579L11.4112 15.0757C11.4189 15.0126 11.4144 14.9485 11.3978 14.8871C11.3812 14.8257 11.3529 14.7683 11.3146 14.718C11.2762 14.6678 11.2285 14.6257 11.1741 14.5943C11.1198 14.5628 11.0599 14.5426 10.9979 14.5347C10.9359 14.5268 10.8729 14.5314 10.8127 14.5483C10.7524 14.5652 10.696 14.594 10.6466 14.6331C10.5973 14.6722 10.556 14.7208 10.5251 14.7761C10.4942 14.8315 10.4744 14.8924 10.4666 14.9556L8.65645 29.7106L1.03242 24.9657L5.50981 8.95711L9.70374 11.3548C9.81314 11.4103 9.93932 11.4209 10.0562 11.3844C10.173 11.3479 10.2717 11.267 10.3316 11.1585C10.3916 11.0501 10.4084 10.9223 10.3784 10.8016C10.3485 10.6809 10.2742 10.5765 10.1708 10.51L5.44989 7.81205C5.38736 7.77559 5.31746 7.7542 5.24555 7.74951C5.17364 7.74483 5.10164 7.75699 5.03506 7.78505C4.96848 7.8131 4.90909 7.85632 4.86146 7.91138C4.81382 7.96644 4.7792 8.03188 4.76025 8.10268L0.0193748 25.0558C-0.00929913 25.1575 -0.00434769 25.266 0.0334666 25.3645C0.0712808 25.4631 0.13986 25.5462 0.228643 25.6012L8.78867 30.9293Z" fill="#E3AA9A"/>
<path id="Vector_2" d="M19.1779 22.6378C19.2653 22.7198 19.3796 22.7657 19.4984 22.7662C19.6173 22.7667 19.732 22.722 19.82 22.6407C20.1368 22.3471 27.5858 15.3857 27.5858 8.23438C27.5858 3.61634 24.0349 0 19.5004 0C14.9659 0 11.415 3.61634 11.415 8.23438C11.415 15.2617 18.8612 22.3394 19.1779 22.6378ZM19.5004 0.96875C23.5669 0.96875 26.6346 4.092 26.6346 8.23438C26.6346 14.1408 20.9339 20.1858 19.5033 21.6099C18.0755 20.1694 12.3663 14.0449 12.3663 8.23438C12.3663 4.092 15.4339 0.96875 19.5004 0.96875Z" fill="#E3AA9A"/>
<path id="Vector_3" d="M23.7807 8.23438C23.7807 5.83091 21.8602 3.875 19.5002 3.875C17.1402 3.875 15.2197 5.83091 15.2197 8.23438C15.2197 10.6378 17.1402 12.5938 19.5002 12.5938C21.8602 12.5938 23.7807 10.6378 23.7807 8.23438ZM19.5002 11.625C17.6644 11.625 16.1709 10.1041 16.1709 8.23438C16.1709 6.36469 17.6644 4.84375 19.5002 4.84375C21.3361 4.84375 22.8295 6.36469 22.8295 8.23438C22.8295 10.1041 21.3361 11.625 19.5002 11.625Z" fill="#E3AA9A"/>
</g>
</g>
<defs>
<clipPath id="clip0_172_1874">
<rect width="39" height="31" fill="white"/>
</clipPath>
</defs>
</svg>
