<svg width="40" height="40" viewBox="0 0 40 40" fill="none" xmlns="http://www.w3.org/2000/svg">
<g id="phone sign">
<path id="Vector" d="M24.3125 6.09377C24.3325 6.01346 24.3683 5.93794 24.4178 5.87157C24.4672 5.8052 24.5294 5.74932 24.6006 5.70717C24.6718 5.66501 24.7507 5.63743 24.8327 5.62601C24.9147 5.61459 24.9981 5.61956 25.0781 5.64065C27.3008 6.24267 29.3272 7.41622 30.9555 9.04454C32.5838 10.6729 33.7574 12.6992 34.3594 14.9219C34.3805 15.0019 34.3854 15.0854 34.374 15.1673C34.3626 15.2493 34.335 15.3282 34.2929 15.3994C34.2507 15.4707 34.1948 15.5328 34.1284 15.5823C34.0621 15.6317 33.9866 15.6675 33.9062 15.6875L33.75 15.7188C33.6114 15.7171 33.4771 15.6705 33.3672 15.586C33.2573 15.5014 33.1778 15.3836 33.1406 15.25C32.5978 13.2399 31.5374 11.4072 30.0651 9.93495C28.5928 8.46266 26.7601 7.4022 24.75 6.8594C24.67 6.83958 24.5948 6.80374 24.529 6.75403C24.4633 6.70433 24.4083 6.64179 24.3674 6.57022C24.3265 6.49865 24.3005 6.41952 24.2911 6.33762C24.2817 6.25573 24.2889 6.17277 24.3125 6.09377ZM23.4531 11.6875C24.6182 12 25.6806 12.6135 26.5335 13.4665C27.3865 14.3194 28 15.3818 28.3125 16.5469C28.3497 16.6804 28.4292 16.7983 28.5391 16.8828C28.6489 16.9674 28.7833 17.014 28.9219 17.0156L29.0781 16.9844C29.1581 16.9646 29.2333 16.9287 29.2991 16.879C29.3648 16.8293 29.4198 16.7668 29.4607 16.6952C29.5016 16.6236 29.5276 16.5445 29.537 16.4626C29.5465 16.3807 29.5392 16.2978 29.5156 16.2188C29.1516 14.8416 28.4292 13.5854 27.4219 12.5781C26.4146 11.5709 25.1585 10.8484 23.7812 10.4844C23.7022 10.4608 23.6193 10.4536 23.5374 10.463C23.4555 10.4724 23.3764 10.4984 23.3048 10.5393C23.2332 10.5802 23.1707 10.6352 23.121 10.7009C23.0713 10.7667 23.0354 10.8419 23.0156 10.9219C22.9725 11.0814 22.9943 11.2515 23.0763 11.395C23.1583 11.5385 23.2938 11.6437 23.4531 11.6875ZM35.5625 27.2813C35.3084 29.2408 34.3503 31.0409 32.8669 32.3461C31.3834 33.6514 29.4759 34.3725 27.5 34.375C15.4375 34.375 5.625 24.5625 5.625 12.5C5.62756 10.5241 6.34867 8.61661 7.65387 7.13316C8.95907 5.64972 10.7593 4.69162 12.7188 4.43752C13.1219 4.39053 13.5295 4.47454 13.8813 4.67715C14.233 4.87975 14.5102 5.19018 14.6719 5.56252L17.8125 12.8906C17.9341 13.175 17.9834 13.485 17.9562 13.7931C17.9289 14.1011 17.8259 14.3977 17.6562 14.6563L15.0625 18.625C15.0017 18.7135 14.9654 18.8164 14.9571 18.9234C14.9489 19.0304 14.9691 19.1377 15.0156 19.2344C16.2471 21.7608 18.2951 23.7978 20.8281 25.0156C20.922 25.0624 21.0269 25.0828 21.1315 25.0746C21.2361 25.0663 21.3365 25.0297 21.4219 24.9688L25.3438 22.3594C25.6022 22.1832 25.901 22.0751 26.2123 22.0451C26.5237 22.015 26.8376 22.064 27.125 22.1875L34.4375 25.3281C34.8098 25.4898 35.1203 25.767 35.3229 26.1187C35.5255 26.4705 35.6095 26.8781 35.5625 27.2813ZM33.9375 26.4844L26.625 23.3438C26.5299 23.3016 26.4259 23.2837 26.3222 23.2919C26.2185 23.3001 26.1185 23.334 26.0312 23.3906L22.125 26C21.8566 26.1822 21.5453 26.2911 21.2218 26.3158C20.8984 26.3404 20.5741 26.2801 20.2812 26.1406C17.5011 24.7933 15.2516 22.5548 13.8906 19.7813C13.752 19.4889 13.6906 19.1659 13.7125 18.8431C13.7344 18.5203 13.8388 18.2085 14.0156 17.9375L16.6094 13.9688C16.6673 13.8821 16.7021 13.782 16.7103 13.678C16.7185 13.5741 16.6999 13.4697 16.6562 13.375L13.5156 6.06252C13.4718 5.94855 13.3947 5.85037 13.2944 5.78072C13.1941 5.71106 13.0752 5.67315 12.9531 5.6719H12.875C11.2166 5.88806 9.6934 6.7 8.58945 7.95632C7.4855 9.21264 6.87614 10.8276 6.875 12.5C6.87914 17.9688 9.05345 23.2125 12.9205 27.0795C16.7875 30.9466 22.0312 33.1209 27.5 33.125C29.1724 33.1239 30.7874 32.5145 32.0437 31.4106C33.3 30.3066 34.112 28.7834 34.3281 27.125C34.3411 26.9903 34.3101 26.8551 34.2396 26.7396C34.1692 26.624 34.0632 26.5345 33.9375 26.4844Z" fill="#E3AA9A"/>
</g>
</svg>
