<svg width="789" height="154" viewBox="0 0 789 154" fill="none" xmlns="http://www.w3.org/2000/svg">
<path d="M70.0933 41.5358H86.2469L54.1021 121.634C45.7904 142.207 40.926 153.048 23.2058 153.048C20.0714 153.048 17.2499 152.729 14.5854 151.945V136.556C16.466 137.027 21.638 137.341 23.681 137.341C29.4799 137.341 32.9282 133.416 36.8518 124.621L0.94043 41.5358H18.0337L45.1635 104.204L70.0933 41.5358Z" fill="#E3AA9A" fill-opacity="0.7"/>
<path d="M169.051 120.063H153.372V56.4587H124.989V67.4521C124.989 105.774 116.364 120.063 94.8818 120.063V105.146C106.328 105.146 109.306 99.647 109.306 64.3128V41.5357H169.051V120.063Z" fill="#E3AA9A" fill-opacity="0.7"/>
<path d="M276.633 41.5357H292.317V120.063H276.633V41.5357ZM232.258 105.147C242.294 105.147 247.309 100.589 247.309 93.5256C247.309 86.4567 242.294 81.7419 232.258 81.7419H216.105V105.147H232.258ZM231.004 66.8242C251.233 66.8242 262.993 77.1897 262.993 93.5256C262.993 110.012 251.233 120.063 231.004 120.063H200.427V41.5357H216.105V66.8242H231.004Z" fill="#E3AA9A" fill-opacity="0.7"/>
<path d="M380.46 80.957C380.46 65.5686 371.678 55.6738 357.724 55.6738C343.765 55.6738 334.983 65.4114 334.983 80.8008C334.983 96.1934 343.765 106.088 357.724 106.088C371.678 106.088 380.46 96.3506 380.46 80.957ZM396.143 80.957C396.143 106.088 381.244 121.791 357.724 121.791C334.199 121.791 319.305 106.088 319.305 69.8064C319.305 33.5299 320.246 10.2832 356.627 9.1837C371.207 8.71307 379.676 7.92799 379.676 0.702858H394.57C394.57 20.0209 382.654 24.2639 360.702 24.7356C340.63 25.2063 336.399 30.5436 335.772 49.0765C341.727 43.2686 349.883 40.1229 359.291 40.1229C381.244 40.1229 396.143 55.5176 396.143 80.957Z" fill="#E3AA9A" fill-opacity="0.7"/>
<path d="M474.239 80.8002C474.239 65.4119 465.462 55.6732 451.503 55.6732C437.549 55.6732 428.768 65.4119 428.768 80.8002C428.768 96.1939 437.549 105.93 451.503 105.93C465.462 105.93 474.239 96.1939 474.239 80.8002ZM474.552 41.5363H490.236V120.064H474.552V111.582C468.283 118.023 459.659 121.634 449.152 121.634C427.043 121.634 413.084 105.93 413.084 80.8002C413.084 55.6732 427.984 39.9662 449.152 39.9662C459.659 39.9662 468.44 43.5814 474.552 49.861V41.5363Z" fill="#E3AA9A" fill-opacity="0.7"/>
<path d="M535.41 10.1259H547.954C547.954 15.9391 551.249 18.6078 558.303 18.6078C565.361 18.6078 568.657 15.9391 568.657 10.1259H581.201C581.201 23.3215 573.359 30.0717 558.303 30.0717C543.252 30.0717 535.41 23.3215 535.41 10.1259ZM594.527 120.063H578.849V63.3705L539.333 120.063H521.613V41.5357H537.291V98.234L576.807 41.5357H594.527V120.063Z" fill="#E3AA9A" fill-opacity="0.7"/>
<path d="M621.201 80.8002C621.201 55.6732 636.101 39.9662 659.62 39.9662C680.633 39.9662 694.743 52.3777 697.569 72.9515H681.572C678.908 62.1101 671.066 55.6732 659.62 55.6732C645.666 55.6732 636.885 65.4119 636.885 80.8002C636.885 96.1939 645.666 105.93 659.62 105.93C671.066 105.93 678.908 99.4893 681.572 88.6543H697.569C694.743 109.228 680.633 121.634 659.62 121.634C636.101 121.634 621.201 105.93 621.201 80.8002Z" fill="#E3AA9A" fill-opacity="0.7"/>
<path d="M772.376 72.9513V56.4592H746.036C740.544 56.4592 736.626 59.5985 736.626 64.6267C736.626 69.8067 740.388 72.9513 746.036 72.9513H772.376ZM788.059 120.064H772.376V87.869H759.676L735.059 120.064H716.398L741.171 87.3984C728.785 85.3576 720.944 77.0329 720.944 64.6267C720.944 50.4887 731.763 41.5362 747.289 41.5362H788.059V120.064Z" fill="#E3AA9A" fill-opacity="0.7"/>
</svg>
