<svg width="896" height="600" xmlns="http://www.w3.org/2000/svg">
 <g id="Layer_1">
  <title>Layer 1</title>
  <ellipse stroke="null" ry="509.55056" rx="514.04493" id="svg_12" cy="302.80906" cx="361.23594" opacity="NaN" fill="#2a2929"/>
  <g stroke="null">
   <path stroke="null" fill="#D9D9D9" d="m806.56072,0.8164c56.53866,85.16696 88.67767,188.32755 88.67767,299.88276c0,112.1577 -32.13902,214.71797 -87.48778,299.88493l-72.60816,0c63.08735,-82.16832 100.58162,-185.92765 100.58162,-299.88493c0,-113.95531 -38.09005,-218.31486 -102.96298,-299.88276l73.79963,0z"/>
  </g>
  <g stroke="null" id="svg_2">
   <g stroke="null">
    <path stroke="null" fill="#D9D9D9" d="m453.21176,285.24766l187.76584,0c-11.08627,-47.87119 -44.98519,-76.46099 -93.88411,-76.46099c-48.89694,0 -82.79784,28.5898 -93.88174,76.46099zm-2.60873,56.514c6.52088,56.51499 42.37785,86.43498 96.49046,86.43498c37.16267,0 67.80574,-13.29898 82.14687,-39.89398l71.06553,0c-20.8627,67.1518 -76.28121,106.37999 -153.2124,106.37999c-99.75006,0 -162.98882,-66.48601 -162.98882,-172.86798c0,-106.3797 63.23876,-172.86798 162.98882,-172.86798c99.74977,0 162.9908,65.15898 162.9908,172.86798c0,6.64998 0,13.29799 -0.65295,19.94699l-258.82832,0z"/>
   </g>
   <g stroke="null">
    <path stroke="null" fill="#D9D9D9" d="m264.06373,321.62961c0,-65.19148 -37.58083,-106.43619 -97.30796,-106.43619c-59.7261,0 -97.30693,41.24471 -97.30693,106.43619c0,65.19252 37.58083,106.43723 97.30693,106.43723c59.72713,0 97.30796,-41.24471 97.30796,-106.43723zm67.10855,0c0,106.43723 -59.72713,172.96075 -154.34935,172.96075c-44.96224,0 -81.87261,-15.29936 -108.71583,-42.57468l0,35.92274l-67.1071,0l0,-498.92436l67.1071,0l0,201.56605c26.17327,-26.60982 63.75358,-41.91124 108.71583,-41.91124c90.59515,0 154.34935,66.52456 154.34935,172.96075z"/>
   </g>
  </g>
 </g>

</svg>