<?xml version="1.0" encoding="utf-8"?>
<!-- Generator: Adobe Illustrator 27.0.0, SVG Export Plug-In . SVG Version: 6.00 Build 0)  -->
<svg version="1.1" id="Layer_1" xmlns="http://www.w3.org/2000/svg" xmlns:xlink="http://www.w3.org/1999/xlink" x="0px" y="0px"
	 viewBox="0 0 600 600" style="enable-background:new 0 0 600 600;" xml:space="preserve">
<style type="text/css">
	.st0{fill:#2A2929;}
	.st1{fill:#D9D9D9;}
</style>
<path class="st0" d="M289.8,271"/>
<g id="Layer_1_00000005241731318311664530000005133809091626082445_">
	<g>
		<path class="st1" d="M427.4,600h73.8c-64.8-81.5-103-186.1-103.1-300c0-114,37.5-217.8,100.6-300l-72.6,0
			c-55.3,85.2-87.4,187.8-87.4,300C338.7,411.7,370.9,514.8,427.4,600L427.4,600z"/>
	</g>
	<g id="Layer_1_00000034081836807257135940000007997957337640374169_">
		<g>
			<path class="st1" d="M172.6,0L98.7,0c64.8,81.5,103,186.1,103.1,300c0,114-37.5,217.8-100.6,300h72.6
				c55.3-85.2,87.4-187.8,87.4-300C261.3,188.3,229.1,85.2,172.6,0L172.6,0z"/>
		</g>
	</g>
</g>
</svg>
