<?xml version="1.0" encoding="utf-8"?>
<!-- Generator: Adobe Illustrator 27.0.0, SVG Export Plug-In . SVG Version: 6.00 Build 0)  -->
<svg version="1.1" id="Layer_1" xmlns="http://www.w3.org/2000/svg" xmlns:xlink="http://www.w3.org/1999/xlink" x="0px" y="0px"
	 viewBox="0 0 4634.8 600" style="enable-background:new 0 0 4634.8 600;" xml:space="preserve">
<style type="text/css">
	.st0{fill:#D9D9D9;}
</style>
<path class="st0" d="M260.7,329.7c0-65.3-37.3-106.7-96.5-106.7c-59.2,0-96.4,41.3-96.4,106.7c0,65.3,37.2,106.7,96.4,106.7
	C223.5,436.4,260.7,395,260.7,329.7z M327.2,329.7c0,106.7-59.2,173.3-153,173.3c-44.6,0-81.2-15.3-107.8-42.7v36H0v-500h66.5v202
	c25.9-26.7,63.2-42,107.8-42C264.1,156.3,327.2,223,327.2,329.7z"/>
<path class="st0" d="M490.9,293h191.6c-11.3-48-45.9-76.7-95.8-76.7S502.3,245,490.9,293z M586.7,436.4c37.9,0,69.2-13.3,83.8-40
	H743C721.7,463.7,665.2,503,586.7,503c-101.8,0-166.3-66.7-166.3-173.3c0-106.7,64.5-173.3,166.3-173.3S753,221.7,753,329.7
	c0,6.7,0,13.3-0.7,20H488.3C494.9,406.4,531.5,436.4,586.7,436.4z"/>
<path class="st0" d="M1214.7,223c-59.2,0-96.4,41.3-96.4,106.7c0,65.3,37.2,106.7,96.4,106.7c59.2,0,96.4-41.3,96.4-106.7
	C1311.2,264.4,1273.9,223,1214.7,223z M1214.7,156.3c99.8,0,163,65.4,163,173.3c0,106.7-63.2,173.3-163,173.3
	c-99.8,0-163-66.7-163-173.3C1051.8,223,1114.9,156.3,1214.7,156.3z"/>
<path class="st0" d="M1760.9,429.7v66.7h-300v-66.7l207.5-200h-200.9V163h286.7v66.7l-207.5,200H1760.9z"/>
<path class="st0" d="M2166.7,163v333.4h-66.5v-36c-26.6,27.3-63.2,42.7-106.4,42.7c-85.8,0-139.7-53.3-139.7-160.7V163h66.5v179.3
	c0,66,29.3,94,83.8,94c55.2,0,95.8-41.3,95.8-106.7V163H2166.7z"/>
<path class="st0" d="M2560.5,329.7c0-65.3-37.3-106.7-96.5-106.7c-59.2,0-96.4,41.3-96.4,106.7c0,65.3,37.2,106.7,96.4,106.7
	C2523.3,436.4,2560.5,395,2560.5,329.7z M2627,329.7c0,106.7-59.2,173.3-153,173.3c-44.6,0-81.2-15.3-107.8-42.7v36h-66.5v-500h66.5
	v202c25.9-26.7,63.2-42,107.8-42C2563.8,156.3,2627,223,2627,329.7z"/>
<path class="st0" d="M2853.3,329.7c0-106.7,63.2-173.3,163-173.3c89.1,0,149,52.7,161,140h-67.9c-11.3-46-44.6-73.3-93.1-73.3
	c-59.2,0-96.4,41.3-96.4,106.7c0,65.3,37.3,106.7,96.4,106.7c48.6,0,81.8-27.3,93.1-73.3h67.9c-12,87.3-71.8,140-161,140
	C2916.5,503,2853.3,436.4,2853.3,329.7z"/>
<path class="st0" d="M3562.4,496.4h-66.5V163h66.5V496.4z M3529.1-3.7c24.6,0,39.9,15.3,39.9,40c0,24.7-15.3,40-39.9,40
	c-24.6,0-39.9-15.3-39.9-40C3489.2,11.7,3504.5-3.7,3529.1-3.7z"/>
<path class="st0" d="M4008.1,317v179.3h-66.5V317c0-66-29.3-94-83.8-94c-55.2,0-95.8,41.3-95.8,106.7v166.7h-66.5V163h66.5v36
	c26.6-27.3,63.2-42.7,106.5-42.7C3954.2,156.3,4008.1,209.7,4008.1,317z"/>
<path class="st0" d="M4197.7,496.4h-66.5V163h66.5V496.4z M4164.5-3.7c24.6,0,39.9,15.3,39.9,40c0,24.7-15.3,40-39.9,40
	c-24.6,0-39.9-15.3-39.9-40C4124.5,11.7,4139.9-3.7,4164.5-3.7z"/>
<path class="st0" d="M4310.8,329.7c0-106.7,63.2-173.3,163-173.3c89.1,0,149,52.7,161,140h-67.9c-11.3-46-44.6-73.3-93.1-73.3
	c-59.2,0-96.5,41.3-96.5,106.7c0,65.3,37.3,106.7,96.5,106.7c48.5,0,81.8-27.3,93.1-73.3h67.9c-12,87.3-71.9,140-161,140
	C4374,503,4310.8,436.4,4310.8,329.7z"/>
<g>
	<path class="st0" d="M849.3-17.5c58.5,88.2,91.8,194.9,91.8,310.5c0,116.1-33.3,222.3-90.5,310.5h-75.1
		C840.8,518.4,879.6,411,879.6,293C879.5,175.1,840,66.9,772.9-17.5H849.3L849.3-17.5z"/>
</g>
<g>
	<path class="st0" d="M3271-10.5c58.5,88.2,91.8,194.9,91.8,310.5c0,116.1-33.3,222.3-90.5,310.5h-75.1
		c65.3-85.1,104.1-192.5,104.1-310.5c-0.1-117.9-39.6-226.1-106.7-310.5H3271L3271-10.5z"/>
</g>
</svg>
