<svg width="1290" height="142" viewBox="0 0 1290 142" fill="none" xmlns="http://www.w3.org/2000/svg">
<path d="M72.5734 92.7821C72.5734 74.6002 62.2042 63.0935 45.7236 63.0935C29.2483 63.0935 18.8809 74.6002 18.8809 92.7821C18.8809 110.971 29.2483 122.476 45.7236 122.476C62.2042 122.476 72.5734 110.971 72.5734 92.7821ZM91.0829 92.7821C91.0829 122.476 74.6094 141.029 48.5061 141.029C36.101 141.029 25.9175 136.763 18.5113 129.153V139.176H0V3.05176e-05H18.5113V56.2249C25.7336 48.8014 36.101 44.5356 48.5061 44.5356C73.4985 44.5356 91.0829 63.0935 91.0829 92.7821Z" fill="#F4F4F4"/>
<path d="M136.645 82.575H189.963C186.816 69.2138 177.188 61.2336 163.304 61.2336C149.42 61.2336 139.792 69.2138 136.645 82.575ZM163.304 122.476C173.857 122.476 182.56 118.762 186.632 111.342H206.813C200.885 130.08 185.151 141.029 163.304 141.029C134.981 141.029 117.02 122.476 117.02 92.7821C117.02 63.0935 134.981 44.5339 163.304 44.5339C191.627 44.5339 209.588 62.7229 209.588 92.7821C209.588 94.6366 209.588 96.4912 209.404 98.3529H135.906C137.756 114.124 147.939 122.476 163.304 122.476Z" fill="#F4F4F4"/>
<path d="M248.293 69.5861C248.293 43.6083 239.774 19.4833 225.335 0H247.554C259.771 20.4106 266.81 44.1651 266.81 69.5861C266.81 95.0071 259.771 118.762 247.554 139.176H225.335C239.774 119.687 248.293 95.5639 248.293 69.5861Z" fill="#F4F4F4"/>
<path d="M338.095 63.0942C321.619 63.0942 311.252 74.6009 311.252 92.7828C311.252 110.97 321.619 122.477 338.095 122.477C354.57 122.477 364.937 110.97 364.937 92.7828C364.937 74.6009 354.57 63.0942 338.095 63.0942ZM338.095 44.5346C365.862 44.5346 383.454 62.7237 383.454 92.7828C383.454 122.477 365.862 141.029 338.095 141.029C310.325 141.029 292.735 122.477 292.735 92.7828C292.735 63.0942 310.325 44.5346 338.095 44.5346Z" fill="#F4F4F4"/>
<path d="M490.109 120.616V139.175H406.611V120.616L464.376 64.9493H408.463V46.3896H488.259V64.9493L430.495 120.616H490.109Z" fill="#F4F4F4"/>
<path d="M603.054 46.3901V139.176H584.538V129.153C577.13 136.764 566.953 141.03 554.918 141.03C531.036 141.03 516.036 126.187 516.036 96.3067V46.3901H534.553V96.3067C534.553 114.68 542.7 122.476 557.879 122.476C573.245 122.476 584.538 110.971 584.538 92.782V46.3901H603.054Z" fill="#F4F4F4"/>
<path d="M712.672 92.7821C712.672 74.6002 702.303 63.0935 685.822 63.0935C669.347 63.0935 658.98 74.6002 658.98 92.7821C658.98 110.971 669.347 122.476 685.822 122.476C702.303 122.476 712.672 110.971 712.672 92.7821ZM731.182 92.7821C731.182 122.476 714.708 141.029 688.605 141.029C676.2 141.029 666.016 136.763 658.61 129.153V139.176H640.099V3.05176e-05H658.61V56.2249C665.832 48.8014 676.2 44.5356 688.605 44.5356C713.597 44.5356 731.182 63.0935 731.182 92.7821Z" fill="#F4F4F4"/>
<path d="M794.152 92.7821C794.152 63.0935 811.744 44.5356 839.512 44.5356C864.32 44.5356 880.981 59.1929 884.317 83.5023H865.431C862.284 70.6978 853.026 63.0935 839.512 63.0935C823.038 63.0935 812.669 74.6002 812.669 92.7821C812.669 110.971 823.038 122.476 839.512 122.476C853.026 122.476 862.284 114.866 865.431 102.062H884.317C880.981 126.371 864.32 141.029 839.512 141.029C811.744 141.029 794.152 122.476 794.152 92.7821Z" fill="#F4F4F4"/>
<path d="M923.02 69.5861C923.02 43.6083 914.501 19.4833 900.062 3.71916e-06H922.28C934.498 20.4106 941.536 44.1651 941.536 69.5861C941.536 95.0071 934.498 118.762 922.28 139.176H900.062C914.501 119.687 923.02 95.5639 923.02 69.5861Z" fill="#F4F4F4"/>
<path d="M991.529 139.174H973.018V46.3887H991.529V139.174ZM982.271 0.000335693C989.123 0.000335693 993.379 4.26608 993.379 11.1311C993.379 17.9996 989.123 22.2654 982.271 22.2654C975.423 22.2654 971.162 17.9996 971.162 11.1311C971.162 4.26608 975.423 0.000335693 982.271 0.000335693Z" fill="#F4F4F4"/>
<path d="M1115.58 89.2582V139.175H1097.07V89.2582C1097.07 70.8847 1088.92 63.0943 1073.74 63.0943C1058.37 63.0943 1047.08 74.6009 1047.08 92.7829V139.175H1028.57V46.3892H1047.08V56.4119C1054.49 48.8004 1064.67 44.5346 1076.71 44.5346C1100.59 44.5346 1115.58 59.3798 1115.58 89.2582Z" fill="#F4F4F4"/>
<path d="M1168.36 139.174H1149.85V46.3887H1168.36V139.174ZM1159.1 0.000335693C1165.96 0.000335693 1170.21 4.26608 1170.21 11.1311C1170.21 17.9996 1165.96 22.2654 1159.1 22.2654C1152.26 22.2654 1147.99 17.9996 1147.99 11.1311C1147.99 4.26608 1152.26 0.000335693 1159.1 0.000335693Z" fill="#F4F4F4"/>
<path d="M1199.84 92.7821C1199.84 63.0935 1217.43 44.5356 1245.2 44.5356C1270 44.5356 1286.66 59.1929 1290 83.5023H1271.11C1267.97 70.6978 1258.71 63.0935 1245.2 63.0935C1228.72 63.0935 1218.35 74.6002 1218.35 92.7821C1218.35 110.971 1228.72 122.476 1245.2 122.476C1258.71 122.476 1267.97 114.866 1271.11 102.062H1290C1286.66 126.371 1270 141.029 1245.2 141.029C1217.43 141.029 1199.84 122.476 1199.84 92.7821Z" fill="#F4F4F4"/>
</svg>
