<?xml version="1.0" encoding="utf-8"?>
<!-- Generator: Adobe Illustrator 27.0.0, SVG Export Plug-In . SVG Version: 6.00 Build 0)  -->
<svg version="1.1" id="Layer_1" xmlns="http://www.w3.org/2000/svg" xmlns:xlink="http://www.w3.org/1999/xlink" x="0px" y="0px"
	 viewBox="0 0 896 600" style="enable-background:new 0 0 896 600;" xml:space="preserve">
<style type="text/css">
	.st0{fill:#2A2929;}
	.st1{fill:#D9D9D9;}
</style>
<g id="Layer_1_00000005241731318311664530000005133809091626082445_">
	<ellipse id="svg_12" class="st0" cx="361.2" cy="302.8" rx="514" ry="509.6"/>
	<g>
		<path class="st1" d="M803.4-12c58.5,88.2,91.8,194.9,91.8,310.5c0,116.1-33.3,222.3-90.5,310.5h-75.1
			c65.3-85.1,104.1-192.5,104.1-310.5C833.6,180.6,794.1,72.4,727-12L803.4-12L803.4-12z"/>
	</g>
	<g id="svg_2">
		<g>
			<path class="st1" d="M453.2,285.2H641c-11.1-47.9-45-76.5-93.9-76.5C498.2,208.8,464.3,237.4,453.2,285.2z M450.6,341.8
				c6.5,56.5,42.4,86.4,96.5,86.4c37.2,0,67.8-13.3,82.1-39.9h71.1c-20.9,67.2-76.3,106.4-153.2,106.4c-99.8,0-163-66.5-163-172.9
				s63.2-172.9,163-172.9c99.7,0,163,65.2,163,172.9c0,6.6,0,13.3-0.7,19.9L450.6,341.8L450.6,341.8z"/>
		</g>
		<g>
			<path class="st1" d="M264.1,321.6c0-65.2-37.6-106.4-97.3-106.4s-97.3,41.2-97.3,106.4S107.1,428,166.8,428
				C226.5,428.1,264.1,386.8,264.1,321.6z M331.2,321.6c0,106.4-59.7,173-154.3,173c-45,0-81.9-15.3-108.7-42.6v35.9H1V-11h67.1
				v201.6c26.2-26.6,63.8-41.9,108.7-41.9C267.4,148.7,331.2,215.2,331.2,321.6L331.2,321.6z"/>
		</g>
	</g>
</g>
</svg>
