<?xml version="1.0" encoding="utf-8"?>
<!-- Generator: Adobe Illustrator 27.0.0, SVG Export Plug-In . SVG Version: 6.00 Build 0)  -->
<svg version="1.1" id="Layer_1" xmlns="http://www.w3.org/2000/svg" xmlns:xlink="http://www.w3.org/1999/xlink" x="0px" y="0px"
	 viewBox="0 0 600 600" style="enable-background:new 0 0 600 600;" xml:space="preserve">
<style type="text/css">
	.st0{fill:#2A2929;}
	.st1{fill:#D9D9D9;}
</style>
<path class="st0" d="M289.8,271"/>
<g id="Layer_1_00000005241731318311664530000005133809091626082445_">
	<g>
		<path class="st1" d="M600,112.8l0-73.8c-81.5,64.8-186.1,103-300,103.1C186,142,82.2,104.6,0,41.5L0,114
			c85.2,55.3,187.8,87.4,300,87.4C411.7,201.5,514.8,169.3,600,112.8L600,112.8z"/>
	</g>
	<g id="Layer_1_00000168117957087870345840000008898178913541568140_">
		<g>
			<path class="st1" d="M600,275.3l0-73.8c-81.5,64.8-186.1,103-300,103.1C186,304.6,82.2,267.1,0,204l0,72.6
				C85.2,331.8,187.8,364,300,364C411.7,364,514.8,331.8,600,275.3L600,275.3z"/>
		</g>
	</g>
	<g id="Layer_1_00000034081836807257135940000007997957337640374169_">
		<g>
			<path class="st1" d="M600,437.8l0-73.8c-81.5,64.8-186.1,103-300,103.1c-114,0-217.8-37.5-300-100.6L0,439
				c85.2,55.3,187.8,87.4,300,87.4C411.7,526.5,514.8,494.3,600,437.8L600,437.8z"/>
		</g>
	</g>
</g>
</svg>
